<?xml version='1.0' encoding='utf-8'?>
<svg xmlns="http://www.w3.org/2000/svg" viewBox="0 0 128 128">
 <g stroke-width=".964">
  <path d="m29.094 10.236c-3.1838 0-5.7188 2.5662-5.7188 5.75v94.028c0 3.184 2.535 5.75 5.7188 5.75h69.812c3.1838 0 5.7188-2.566 5.7188-5.75v-70.653h-21.031c-4.3062 0-8.0626-3.1411-8.0626-7.3125v-21.812h-46.437zm50.437 0v21.812c0 1.7141 1.632 3.3125 4.0626 3.3125h21.031l-25.094-25.125z" fill="#95b0c9"/>
  <g fill="#4d4d4d">
   <rect x="34.157" y="36.397" width="38.026" height="6.1854" rx="1.7673" ry="1.7673"/>
   <rect x="34.157" y="65.226" width="59.686" height="6.1854" rx="1.7673" ry="1.7673"/>
   <rect x="34.157" y="50.811" width="38.026" height="6.1854" rx="1.7673" ry="1.7673"/>
   <rect x="34.157" y="79.64" width="59.686" height="6.1854" rx="1.7673" ry="1.7673"/>
   <rect x="34.157" y="94.054" width="59.686" height="6.1854" rx="1.7673" ry="1.7673"/>
  </g>
 </g>
</svg>