<?xml version='1.0' encoding='utf-8'?>
<svg xmlns:xlink="http://www.w3.org/1999/xlink" xmlns="http://www.w3.org/2000/svg" width="1920" height="1080" viewBox="0 0 507.99999 285.75001" version="1.1" id="svg2719"> <defs id="defs2713"> <linearGradient xlink:href="#linearGradient964" id="linearGradient2495" gradientUnits="userSpaceOnUse" gradientTransform="translate(112.38997,11921.991)" x1="555.625" y1="402.83334" x2="1058.3334" y2="138.25"/> <linearGradient id="linearGradient964"> <stop style="stop-color:#f2f2f2;stop-opacity:1;" offset="0" id="stop960"/> <stop style="stop-color:#f2f2f2;stop-opacity:1" offset="1" id="stop962"/> </linearGradient> <linearGradient xlink:href="#linearGradient964" id="linearGradient3162" gradientUnits="userSpaceOnUse" gradientTransform="translate(746.90432,13574.184)" x1="555.625" y1="402.83334" x2="1058.3334" y2="138.25"/> </defs> <metadata id="metadata2716"> </metadata> <g id="g2992" transform="translate(-1328.9877,-13663.75)"> <rect style="color:#000000;clip-rule:nonzero;display:inline;overflow:visible;visibility:visible;opacity:1;isolation:auto;mix-blend-mode:normal;color-interpolation:sRGB;color-interpolation-filters:linearRGB;solid-color:#000000;solid-opacity:1;fill:url(#linearGradient3162);fill-opacity:1;fill-rule:nonzero;stroke:none;stroke-width:0.079375;stroke-linecap:round;stroke-linejoin:round;stroke-miterlimit:4;stroke-dasharray:none;stroke-dashoffset:0;stroke-opacity:1;color-rendering:auto;image-rendering:auto;shape-rendering:auto;text-rendering:auto;enable-background:accumulate" id="rect3160" width="508" height="285.75" x="1328.9877" y="13663.75"/> <path style="opacity:0.1;fill:#000000;fill-rule:evenodd;stroke:none;stroke-width:0.99999994px;stroke-linecap:butt;stroke-linejoin:miter;stroke-opacity:1" d="m 6230.4258,51877.766 -494.9629,609.507 235.2461,235.247 h 972.2363 v -433.381 z" transform="scale(0.26458333)" id="path2976"/> <g id="g2972"> <g id="g2962"> <path style="color:#000000;font-style:normal;font-variant:normal;font-weight:normal;font-stretch:normal;font-size:medium;line-height:normal;font-family:sans-serif;font-variant-ligatures:normal;font-variant-position:normal;font-variant-caps:normal;font-variant-numeric:normal;font-variant-alternates:normal;font-feature-settings:normal;text-indent:0;text-align:start;text-decoration:none;text-decoration-line:none;text-decoration-style:solid;text-decoration-color:#000000;letter-spacing:normal;word-spacing:normal;text-transform:none;writing-mode:lr-tb;direction:ltr;text-orientation:mixed;dominant-baseline:auto;baseline-shift:baseline;text-anchor:start;white-space:normal;shape-padding:0;clip-rule:nonzero;display:inline;overflow:visible;visibility:visible;opacity:1;isolation:auto;mix-blend-mode:normal;color-interpolation:sRGB;color-interpolation-filters:linearRGB;solid-color:#000000;solid-opacity:1;vector-effect:none;fill:#5599ff;fill-opacity:0.87058824;fill-rule:evenodd;stroke:none;stroke-width:4.72787714;stroke-linecap:butt;stroke-linejoin:miter;stroke-miterlimit:4;stroke-dasharray:none;stroke-dashoffset:0;stroke-opacity:1;color-rendering:auto;image-rendering:auto;shape-rendering:auto;text-rendering:auto;enable-background:accumulate" d="m 1517.5078,13725.992 v 2.363 158.903 h 130.959 v -161.266 z" id="path2958"/> <path style="color:#000000;font-style:normal;font-variant:normal;font-weight:normal;font-stretch:normal;font-size:medium;line-height:normal;font-family:sans-serif;font-variant-ligatures:normal;font-variant-position:normal;font-variant-caps:normal;font-variant-numeric:normal;font-variant-alternates:normal;font-feature-settings:normal;text-indent:0;text-align:start;text-decoration:none;text-decoration-line:none;text-decoration-style:solid;text-decoration-color:#000000;letter-spacing:normal;word-spacing:normal;text-transform:none;writing-mode:lr-tb;direction:ltr;text-orientation:mixed;dominant-baseline:auto;baseline-shift:baseline;text-anchor:start;white-space:normal;shape-padding:0;clip-rule:nonzero;display:inline;overflow:visible;visibility:visible;opacity:1;isolation:auto;mix-blend-mode:normal;color-interpolation:sRGB;color-interpolation-filters:linearRGB;solid-color:#000000;solid-opacity:1;vector-effect:none;fill:#ffffff;fill-opacity:1;fill-rule:evenodd;stroke:none;stroke-width:4.72787714;stroke-linecap:butt;stroke-linejoin:miter;stroke-miterlimit:4;stroke-dasharray:none;stroke-dashoffset:0;stroke-opacity:1;color-rendering:auto;image-rendering:auto;shape-rendering:auto;text-rendering:auto;enable-background:accumulate" d="m 1522.2363,13730.721 h 121.502 v 151.808 h -121.502 z" id="path3366"/> </g> <g transform="matrix(0.36699257,0,0,0.36699257,603.33457,9623.743)" id="g3376"> <path style="fill:none;fill-rule:evenodd;stroke:#5599ff;stroke-width:23.8125;stroke-linecap:round;stroke-linejoin:miter;stroke-miterlimit:4;stroke-dasharray:none;stroke-opacity:0.87058824" d="m 2550.3461,11433.01 h 238.125" id="path3368"/> <path style="fill:none;fill-rule:evenodd;stroke:#5599ff;stroke-width:23.8125;stroke-linecap:round;stroke-linejoin:miter;stroke-miterlimit:4;stroke-dasharray:none;stroke-opacity:0.87058824" d="m 2550.3461,11485.927 h 238.125" id="path3370"/> <path style="fill:none;fill-rule:evenodd;stroke:#5599ff;stroke-width:23.8125;stroke-linecap:round;stroke-linejoin:miter;stroke-miterlimit:4;stroke-dasharray:none;stroke-opacity:0.87058824" d="m 2550.3461,11538.843 h 238.125" id="path3372"/> <path id="path3374" d="m 2759.2004,11242.001 a 11.972233,11.972233 0 0 0 -11.9724,11.972 11.972233,11.972233 0 0 0 2.4186,7.198 l -46.5964,65.234 a 11.972233,11.972233 0 0 0 -3.7111,-0.598 11.972233,11.972233 0 0 0 -5.5319,1.361 l -43.7208,-43.721 a 11.972233,11.972233 0 0 0 1.3638,-5.529 11.972233,11.972233 0 0 0 -11.9723,-11.974 11.972233,11.972233 0 0 0 -11.9721,11.974 11.972233,11.972233 0 0 0 2.4769,7.278 l -45.9155,65.424 a 11.972233,11.972233 0 0 0 -4.4504,-0.87 11.972233,11.972233 0 0 0 -11.9723,11.972 11.972233,11.972233 0 0 0 11.9723,11.974 11.972233,11.972233 0 0 0 11.9722,-11.974 11.972233,11.972233 0 0 0 -1.9495,-6.539 l 46.2197,-65.858 a 11.972233,11.972233 0 0 0 3.6187,0.565 11.972233,11.972233 0 0 0 5.5319,-1.361 l 43.7208,43.72 a 11.972233,11.972233 0 0 0 -1.3638,5.53 11.972233,11.972233 0 0 0 11.9723,11.971 11.972233,11.972233 0 0 0 11.9721,-11.971 11.972233,11.972233 0 0 0 -2.4183,-7.196 l 46.5966,-65.235 a 11.972233,11.972233 0 0 0 3.7109,0.599 11.972233,11.972233 0 0 0 11.9721,-11.974 11.972233,11.972233 0 0 0 -11.9721,-11.972 z" style="color:#000000;clip-rule:nonzero;display:inline;overflow:visible;visibility:visible;opacity:1;isolation:auto;mix-blend-mode:normal;color-interpolation:sRGB;color-interpolation-filters:linearRGB;solid-color:#000000;solid-opacity:1;fill:#5599ff;fill-opacity:1;fill-rule:nonzero;stroke:none;stroke-width:0.23944466;stroke-linecap:round;stroke-linejoin:round;stroke-miterlimit:4;stroke-dasharray:none;stroke-dashoffset:0;stroke-opacity:1;color-rendering:auto;image-rendering:auto;shape-rendering:auto;text-rendering:auto;enable-background:accumulate"/> </g> </g> </g> </svg>