<?xml version="1.0" standalone="no"?>
<!DOCTYPE svg PUBLIC "-//W3C//DTD SVG 20010904//EN"
 "http://www.w3.org/TR/2001/REC-SVG-20010904/DTD/svg10.dtd">
<svg version="1.0" xmlns="http://www.w3.org/2000/svg"
 width="1024.000000pt" height="576.000000pt" viewBox="0 0 1024.000000 576.000000"
 preserveAspectRatio="xMidYMid meet">

<g transform="translate(0.000000,576.000000) scale(0.100000,-0.100000)"
fill="#000000" stroke="none">
<path d="M3039 3950 c-14 -19 -50 -69 -78 -110 l-52 -75 48 -5 c34 -4 48 -9
47 -20 0 -8 -4 -50 -8 -92 -8 -87 1 -97 33 -42 26 44 29 73 5 53 -15 -12 -15
-7 -9 53 l7 67 -41 3 -42 3 48 70 48 69 5 -49 c5 -49 6 -50 42 -55 l38 -5 -20
-30 c-21 -31 -26 -55 -12 -55 8 0 62 91 62 104 0 3 -20 6 -45 6 l-44 0 -3 73
-3 72 -26 -35z"/>
<path d="M2852 3920 c-242 -64 -446 -267 -511 -510 -25 -96 -30 -142 -13 -147
8 -3 12 6 12 29 0 94 71 263 155 370 88 113 243 209 389 244 42 10 76 21 76
26 0 12 -27 9 -108 -12z"/>
<path d="M3130 3933 c0 -5 27 -15 60 -21 278 -58 502 -285 556 -564 9 -49 21
-88 26 -88 26 0 -14 165 -67 276 -79 165 -243 310 -413 368 -83 28 -162 43
-162 29z"/>
<path d="M3065 3709 c-4 -6 -5 -13 -2 -16 7 -7 27 6 27 18 0 12 -17 12 -25 -2z"/>
<path d="M2727 3622 c-10 -10 -17 -26 -17 -35 0 -28 -19 -29 -57 -2 -21 14
-41 25 -45 25 -10 0 -128 -120 -128 -131 0 -5 13 -23 30 -41 23 -24 27 -34 19
-44 -6 -8 -19 -14 -29 -14 -49 0 -64 -77 -20 -100 31 -17 59 -3 78 38 16 33
21 37 52 34 20 -2 45 -14 59 -27 l24 -23 -31 -39 c-54 -67 -83 -145 -89 -236
-4 -58 -12 -98 -30 -135 -31 -67 -28 -106 8 -110 34 -4 102 -73 93 -95 -4 -12
-22 -17 -72 -19 l-67 -3 0 -145 0 -145 72 -3 c48 -2 73 -7 76 -16 3 -7 -15
-33 -39 -57 -24 -24 -44 -48 -44 -54 0 -5 45 -55 100 -110 l100 -99 52 51 c29
28 59 49 66 46 8 -3 12 -28 12 -74 l0 -69 145 0 145 0 0 65 c0 88 16 94 81 29
l49 -48 105 104 105 104 -45 46 c-67 68 -62 80 30 80 l75 0 0 150 0 150 -69 0
c-55 0 -70 3 -75 17 -10 24 61 92 96 93 41 0 45 34 14 104 -14 32 -26 75 -26
95 0 114 -46 235 -117 308 l-43 44 27 24 c16 13 30 24 33 25 3 0 21 -29 39
-65 37 -69 48 -76 74 -47 15 16 15 24 0 87 -17 78 -40 117 -29 50 18 -109 18
-125 8 -125 -7 0 -23 21 -36 48 -13 26 -31 56 -39 67 -14 19 -16 18 -56 -18
-53 -48 -76 -38 -27 12 20 20 36 42 36 48 0 6 -30 28 -66 48 -89 50 -74 64 42
37 l88 -20 47 49 c32 33 52 47 63 43 25 -10 19 -25 -31 -76 -26 -26 -44 -51
-40 -55 4 -4 30 15 57 42 54 53 64 87 31 105 -28 15 -62 -1 -98 -46 l-31 -38
-91 18 c-88 18 -92 18 -111 1 -11 -10 -20 -21 -20 -25 0 -4 32 -24 70 -45 l71
-39 -34 -34 c-33 -33 -36 -34 -70 -23 -19 7 -53 30 -75 51 l-40 40 -107 0
c-116 0 -134 -6 -181 -56 -18 -19 -38 -34 -46 -34 -27 0 -80 67 -84 104 -3 33
0 37 31 50 18 8 36 24 40 36 9 28 2 34 -24 21 -23 -13 -40 4 -22 22 6 6 11 15
11 19 0 15 -37 8 -53 -10z m17 -16 c-7 -19 23 -47 43 -39 11 4 14 3 9 -5 -4
-7 -14 -12 -23 -12 -9 0 -24 -7 -33 -15 -15 -13 -19 -13 -29 -2 -9 11 -8 17 4
27 8 7 15 20 15 30 0 9 3 20 7 23 10 11 13 8 7 -7z m-122 -31 c0 -5 -5 -11
-11 -13 -6 -2 -11 4 -11 13 0 9 5 15 11 13 6 -2 11 -8 11 -13z m-27 -24 c7
-12 -12 -24 -25 -16 -11 7 -4 25 10 25 5 0 11 -4 15 -9z m99 -28 c20 -21 36
-46 36 -57 0 -11 16 -37 36 -57 l35 -36 -37 -22 c-34 -21 -38 -21 -55 -5 -11
9 -19 12 -19 6 0 -6 5 -14 10 -17 6 -3 10 -11 10 -18 0 -6 -15 3 -33 21 -18
18 -44 32 -57 32 l-24 0 29 30 c16 17 36 30 44 30 12 0 12 3 3 12 -7 7 -12 27
-12 45 0 39 -6 41 -37 11 -16 -15 -26 -19 -34 -11 -12 12 34 73 56 73 7 0 29
-17 49 -37z m-124 -29 c0 -8 12 -19 27 -25 20 -7 24 -12 14 -22 -9 -9 -20 -3
-47 25 -21 21 -33 41 -29 47 9 15 35 -4 35 -25z m72 -16 c-7 -7 -12 -8 -12 -2
0 6 3 14 7 17 3 4 9 5 12 2 2 -3 -1 -11 -7 -17z m-90 -15 c26 -25 37 -53 21
-53 -10 0 -73 62 -73 72 0 16 25 7 52 -19z m98 -11 c0 -4 -25 -32 -55 -62 -30
-29 -55 -63 -57 -74 -2 -16 -10 -21 -33 -21 -25 0 -31 4 -33 27 -3 23 2 30 31
42 19 7 38 19 41 25 4 5 12 8 19 5 7 -2 26 11 43 30 28 34 44 44 44 28z m380
-327 l0 -325 -245 0 c-284 0 -265 -9 -212 98 9 19 17 53 17 76 0 159 81 305
203 367 l40 21 -6 -39 c-3 -21 -9 -68 -13 -105 -6 -64 -6 -68 14 -68 23 0 32
18 32 63 0 49 25 169 40 194 18 29 46 41 93 42 l37 1 0 -325z m150 298 c24
-22 33 -43 45 -101 8 -40 15 -90 15 -110 0 -46 13 -67 35 -58 13 5 16 14 12
39 -3 17 -9 63 -13 100 l-7 69 34 -18 c58 -29 96 -63 134 -118 45 -66 63 -125
66 -218 1 -40 7 -80 14 -88 15 -18 35 -76 35 -101 0 -18 -13 -19 -245 -19
l-245 0 0 325 0 325 45 0 c35 0 51 -6 75 -27z m220 -663 c-6 -10 -17 -23 -25
-28 -14 -7 -13 -14 4 -53 11 -24 21 -52 21 -61 0 -15 10 -18 60 -18 l60 0 0
-80 0 -80 -58 0 -58 0 -26 -57 -27 -58 39 -40 40 -41 -55 -54 -55 -54 -40 39
-40 39 -56 -20 -57 -20 -1 -55 -1 -54 -80 -3 -80 -3 3 55 4 55 -58 26 -58 26
-41 -41 -41 -40 -40 37 c-72 69 -72 69 -30 112 l38 39 -21 40 c-12 23 -21 48
-21 57 0 12 -13 15 -60 15 l-60 0 0 80 0 80 53 0 52 0 23 61 24 61 -28 29 -28
29 367 0 c362 0 368 0 357 -20z"/>
<path d="M2484 3339 c-3 -6 0 -17 7 -25 18 -17 44 -2 36 20 -7 18 -33 21 -43
5z"/>
<path d="M2979 2725 c-77 -24 -139 -111 -139 -192 0 -60 42 -137 90 -169 92
-61 220 -37 284 54 111 158 -48 366 -235 307z m139 -82 c31 -19 62 -72 62
-106 0 -83 -62 -141 -144 -134 -41 4 -55 10 -82 40 -66 72 -50 161 36 205 48
24 85 23 128 -5z"/>
<path d="M4245 3516 c-67 -30 -115 -111 -115 -193 1 -82 54 -166 123 -192 35
-14 117 -14 151 -1 24 9 26 15 26 65 l0 55 -32 -20 c-40 -24 -60 -25 -103 -5
-37 18 -55 51 -55 100 0 47 19 84 51 101 38 19 68 18 107 -6 l32 -20 0 55 c0
50 -2 56 -26 65 -36 14 -124 12 -159 -4z"/>
<path d="M4595 3513 c-139 -73 -165 -235 -54 -340 43 -41 77 -53 145 -53 221
0 289 299 89 391 -49 23 -139 24 -180 2z m148 -93 c83 -65 40 -210 -61 -210
-63 1 -102 47 -102 120 0 34 6 48 34 76 40 40 89 46 129 14z"/>
<path d="M5258 3522 l-48 -3 0 -195 0 -194 126 0 125 0 -3 43 -3 42 -67 3 -68
3 0 149 c0 82 -3 150 -7 152 -5 2 -29 2 -55 0z"/>
<path d="M5500 3522 c-6 -2 -10 -80 -10 -198 l0 -194 125 0 125 0 0 40 0 40
-70 0 -70 0 0 35 0 35 65 0 65 0 0 45 0 45 -65 0 -65 0 0 35 0 35 70 0 70 0 0
39 0 40 -115 3 c-64 2 -120 2 -125 0z"/>
<path d="M5895 3516 c-125 -56 -158 -229 -63 -332 49 -53 90 -67 178 -62 55 3
74 9 105 32 46 35 74 96 75 159 l0 47 -106 0 -105 0 3 -42 3 -43 55 -5 55 -5
-32 -32 c-70 -73 -183 -19 -183 87 0 96 97 152 171 100 l28 -21 41 21 c22 11
40 24 40 28 0 15 -45 51 -82 67 -45 18 -142 19 -183 1z"/>
<path d="M6343 3522 l-113 -3 0 -194 0 -195 115 0 c63 0 118 0 123 0 4 0 8 18
10 40 3 44 7 42 -80 40 l-58 -1 0 35 0 36 66 0 65 0 -3 43 -3 42 -62 3 -63 3
0 34 0 35 70 0 70 0 0 39 c0 23 -5 40 -12 42 -7 2 -64 3 -125 1z"/>
<path d="M6804 3511 c-51 -23 -99 -81 -113 -137 -33 -131 68 -254 209 -254
178 0 274 204 158 336 -64 72 -166 95 -254 55z m157 -99 c39 -35 50 -102 25
-150 -20 -39 -44 -52 -93 -52 -103 0 -139 153 -51 214 35 25 83 20 119 -12z"/>
<path d="M7253 3522 l-113 -3 0 -194 0 -195 50 0 c56 0 54 -4 51 87 l-2 62 68
3 68 3 0 40 0 40 -68 3 -68 3 4 32 3 32 67 3 67 3 0 39 c0 21 -3 40 -7 42 -5
2 -59 2 -120 0z"/>
<path d="M4930 3325 l0 -195 126 0 125 0 -3 43 -3 42 -67 3 -68 3 0 149 0 150
-55 0 -55 0 0 -195z"/>
<path d="M2243 3184 c-3 -9 -1 -25 5 -35 8 -12 12 -74 12 -173 0 -147 1 -156
22 -176 29 -26 59 -25 86 3 21 22 22 33 22 175 0 98 4 159 12 171 24 38 4 51
-77 51 -61 0 -77 -3 -82 -16z m147 -13 c0 -6 -4 -13 -10 -16 -5 -3 -10 -28
-10 -56 l0 -49 -45 0 -45 0 0 45 c0 33 4 45 15 45 8 0 15 5 15 10 0 6 -11 10
-25 10 -14 0 -25 5 -25 10 0 6 28 10 65 10 36 0 65 -4 65 -9z m-20 -237 c0
-105 -9 -134 -43 -134 -40 0 -47 18 -47 127 l0 103 45 0 45 0 0 -96z"/>
<path d="M2340 2954 c0 -34 4 -53 10 -49 6 3 10 28 10 56 0 27 -4 49 -10 49
-5 0 -10 -25 -10 -56z"/>
<path d="M2340 2875 c0 -8 5 -15 10 -15 6 0 10 7 10 15 0 8 -4 15 -10 15 -5 0
-10 -7 -10 -15z"/>
<path d="M3690 3171 c0 -10 14 -33 30 -51 l30 -32 -30 -34 c-41 -47 -41 -92 1
-134 l32 -31 -22 -20 c-24 -22 -30 -49 -7 -30 8 7 17 8 20 3 7 -12 56 -12 56
-1 0 5 -12 9 -27 9 -21 0 -24 3 -15 12 18 18 58 -9 76 -51 15 -35 15 -35 15
-8 1 18 -9 39 -27 57 l-28 28 28 31 c29 33 38 90 18 121 -14 22 -23 5 -10 -20
16 -30 7 -60 -29 -94 l-30 -29 -30 31 c-21 21 -31 40 -31 62 0 49 65 102 85
70 4 -6 -5 -10 -19 -10 -14 0 -26 -4 -26 -10 0 -5 11 -10 24 -10 27 0 49 41
26 48 -7 3 -1 16 18 36 31 33 44 60 34 70 -3 4 -12 -8 -19 -26 -10 -24 -16
-29 -25 -20 -14 14 -54 16 -63 3 -3 -5 9 -11 26 -13 28 -3 30 -5 17 -16 -13
-10 -21 -8 -47 14 -17 14 -31 34 -31 45 0 10 -4 19 -10 19 -5 0 -10 -9 -10
-19z"/>
<path d="M3720 3180 c0 -5 5 -10 10 -10 6 0 10 5 10 10 0 6 -4 10 -10 10 -5 0
-10 -4 -10 -10z"/>
<path d="M3760 3180 c0 -5 16 -10 36 -10 21 0 33 4 29 10 -3 6 -19 10 -36 10
-16 0 -29 -4 -29 -10z"/>
<path d="M3720 2990 c0 -5 5 -10 10 -10 6 0 10 5 10 10 0 6 -4 10 -10 10 -5 0
-10 -4 -10 -10z"/>
<path d="M3760 2990 c0 -5 16 -10 36 -10 21 0 33 4 29 10 -3 6 -19 10 -36 10
-16 0 -29 -4 -29 -10z"/>
<path d="M4980 2968 c-118 -60 -147 -223 -57 -325 41 -47 82 -63 160 -63 121
0 198 70 201 182 l1 50 -105 2 -105 1 0 -40 0 -40 53 -3 c28 -2 52 -8 52 -13
0 -5 -12 -21 -26 -34 -37 -34 -102 -34 -141 -1 -26 22 -28 30 -28 96 0 66 2
74 28 96 36 31 94 32 132 2 l27 -21 45 22 46 22 -24 26 c-59 64 -177 82 -259
41z"/>
<path d="M7690 2968 c-24 -13 -57 -40 -74 -61 -26 -32 -31 -49 -34 -106 -5
-76 14 -125 65 -173 38 -36 73 -48 144 -48 128 0 196 67 202 201 l2 34 -90 1
c-123 0 -125 0 -125 -47 l0 -39 56 0 c47 0 55 -3 50 -16 -3 -9 -6 -17 -6 -20
0 -11 -64 -34 -94 -34 -69 0 -114 74 -95 158 16 75 89 103 157 62 l33 -20 46
20 46 20 -24 26 c-59 65 -177 83 -259 42z"/>
<path d="M4132 2783 l3 -196 65 -4 c36 -3 89 -2 118 2 l52 6 0 39 0 39 -67 3
-68 3 -3 33 -3 32 65 0 66 0 0 45 0 45 -66 0 -65 0 3 33 3 32 68 3 67 3 0 39
0 40 -120 0 -120 0 2 -197z"/>
<path d="M4440 2786 c0 -211 -2 -203 60 -201 l35 2 5 129 5 129 24 -40 c12
-22 52 -79 87 -127 62 -83 66 -86 109 -90 25 -2 49 -2 55 0 6 2 10 75 10 198
l0 194 -52 0 -53 0 2 -127 c2 -104 0 -124 -10 -109 -6 10 -47 67 -90 127 l-78
109 -54 0 -55 0 0 -194z"/>
<path d="M5332 2783 l3 -198 53 -1 52 -1 0 198 0 199 -55 0 -55 0 2 -197z"/>
<path d="M5510 2786 c0 -120 4 -197 10 -201 6 -3 31 -3 56 1 l46 7 -4 125 c-3
90 -1 120 6 108 16 -26 117 -167 146 -204 24 -31 46 -37 108 -33 l22 1 0 195
0 195 -50 0 -49 0 -3 -127 -3 -128 -19 34 c-10 19 -50 77 -88 128 l-70 93 -54
0 -54 0 0 -194z"/>
<path d="M5972 2783 l3 -198 105 -1 c57 -1 110 0 117 3 8 3 13 21 13 44 l0 38
-67 3 -68 3 -3 33 -3 32 65 0 66 0 0 45 0 45 -66 0 -65 0 3 33 3 32 68 3 67 3
0 39 0 40 -120 0 -120 0 2 -197z"/>
<path d="M6280 2785 l0 -195 24 -6 c13 -3 66 -4 117 -2 l94 3 3 42 3 42 -67 3
-67 3 -2 33 -3 32 64 0 c34 0 66 4 69 10 3 5 3 25 -1 45 l-6 35 -63 0 -63 0 3
33 2 32 67 3 66 3 0 39 0 40 -120 0 -120 0 0 -195z"/>
<path d="M6590 2785 l0 -195 50 0 49 0 3 73 3 72 43 -72 c42 -72 44 -73 85
-74 23 0 50 -2 60 -4 9 -2 17 0 17 3 0 4 -22 41 -50 82 l-49 74 28 12 c54 23
76 124 38 174 -32 42 -59 50 -169 50 l-108 0 0 -195z m174 99 c32 -31 15 -79
-29 -84 -42 -5 -45 -1 -45 50 0 49 1 50 29 50 16 0 37 -7 45 -16z"/>
<path d="M6970 2785 l0 -195 33 0 c17 0 42 -3 55 -6 l22 -6 0 201 0 201 -55 0
-55 0 0 -195z"/>
<path d="M7150 2785 c0 -149 3 -195 13 -196 6 -1 30 -1 52 -2 l40 0 0 127 c0
91 3 123 10 111 5 -10 46 -68 90 -129 85 -116 100 -127 161 -112 l24 6 0 195
0 195 -50 0 -50 0 -1 -127 c0 -103 -2 -124 -12 -109 -7 10 -47 67 -90 127
l-78 109 -54 0 -55 0 0 -195z"/>
<path d="M3740 2940 c0 -5 14 -10 30 -10 17 0 30 5 30 10 0 6 -13 10 -30 10
-16 0 -30 -4 -30 -10z"/>
<path d="M3690 2799 c0 -11 5 -17 10 -14 6 3 10 13 10 21 0 8 -4 14 -10 14 -5
0 -10 -9 -10 -21z"/>
<path d="M3720 2800 c0 -5 16 -10 35 -10 19 0 35 5 35 10 0 6 -16 10 -35 10
-19 0 -35 -4 -35 -10z"/>
<path d="M3810 2800 c0 -5 5 -10 11 -10 5 0 7 5 4 10 -3 6 -8 10 -11 10 -2 0
-4 -4 -4 -10z"/>
<path d="M2299 2676 c-35 -17 -46 -58 -25 -91 24 -37 83 -33 106 8 13 24 13
30 0 53 -19 34 -50 46 -81 30z m65 -38 c15 -24 -3 -52 -37 -56 -33 -4 -53 28
-37 59 14 25 58 23 74 -3z"/>
<path d="M3745 2678 c-27 -15 -35 -28 -35 -59 0 -44 59 -76 96 -51 42 27 35
95 -11 112 -31 12 -25 12 -50 -2z m61 -33 c12 -29 -5 -65 -30 -65 -32 0 -50
24 -42 55 5 20 13 25 37 25 17 0 32 -6 35 -15z"/>
<path d="M2316 2512 c-8 -14 25 -165 51 -227 93 -223 317 -405 542 -441 63
-10 50 11 -16 26 -282 62 -523 320 -550 588 -6 50 -16 72 -27 54z"/>
<path d="M3746 2433 c-54 -273 -268 -499 -533 -560 -40 -10 -73 -21 -73 -25 0
-13 30 -9 110 13 273 75 486 321 525 607 11 86 -10 60 -29 -35z"/>
<path d="M4347 2293 c-11 -10 -8 -143 3 -143 6 0 10 16 10 35 0 32 2 35 30 35
17 0 30 5 30 10 0 6 -13 10 -30 10 -23 0 -30 4 -30 20 0 16 7 20 30 20 17 0
30 5 30 10 0 11 -63 14 -73 3z"/>
<path d="M4500 2220 l0 -81 40 3 c46 2 55 18 10 18 -27 0 -30 3 -30 30 0 27 3
30 30 30 17 0 30 5 30 10 0 6 -13 10 -30 10 -23 0 -30 4 -30 20 0 16 7 20 30
20 17 0 30 5 30 10 0 6 -18 10 -40 10 l-40 0 0 -80z"/>
<path d="M4760 2226 c0 -83 11 -96 64 -77 20 8 26 17 26 41 0 17 -5 30 -12 30
-9 0 -9 3 0 12 28 28 -1 68 -49 68 l-29 0 0 -74z m65 29 c0 -13 -8 -21 -22
-23 -19 -3 -23 1 -23 23 0 22 4 26 23 23 14 -2 22 -10 22 -23z m-7 -44 c21
-13 10 -46 -16 -49 -19 -3 -22 1 -22 27 0 31 13 39 38 22z"/>
<path d="M5150 2220 c0 -77 1 -80 23 -80 46 0 89 55 57 75 -5 3 -7 19 -4 34 7
32 -15 51 -55 51 -19 0 -21 -6 -21 -80z m58 38 c-2 -15 -11 -24 -25 -26 -19
-3 -23 1 -23 22 0 21 5 26 26 26 21 0 25 -4 22 -22z m2 -53 c18 -21 5 -45 -25
-45 -20 0 -25 5 -25 23 0 39 26 50 50 22z"/>
<path d="M5350 2225 c-18 -41 -30 -78 -27 -82 4 -3 12 6 18 21 10 20 19 26 44
26 25 0 34 -6 44 -26 6 -15 14 -24 17 -21 4 4 -50 144 -60 154 -2 2 -18 -31
-36 -72z m49 8 c11 -21 9 -23 -13 -23 -24 0 -25 2 -14 25 6 14 12 24 13 23 1
-2 8 -13 14 -25z"/>
<path d="M5530 2220 l0 -79 35 1 c44 2 58 18 16 18 l-31 0 0 70 c0 40 -4 70
-10 70 -6 0 -10 -33 -10 -80z"/>
<path d="M5719 2287 c-20 -15 -39 -51 -39 -72 0 -26 55 -75 84 -75 31 0 73 37
81 71 9 38 -36 89 -78 89 -18 0 -39 -6 -48 -13z m101 -39 c13 -25 13 -31 0
-55 -21 -38 -81 -45 -104 -11 -9 12 -16 29 -16 38 0 9 7 26 16 38 23 34 83 27
104 -10z"/>
<path d="M5922 2223 c3 -78 3 -78 32 -81 16 -2 33 1 39 7 8 8 2 11 -21 11
l-32 0 0 70 c0 42 -4 70 -10 70 -7 0 -10 -29 -8 -77z"/>
<path d="M6116 2239 c-40 -91 -39 -89 -28 -89 6 0 14 9 17 20 5 15 15 20 40
20 24 0 34 -5 38 -20 3 -11 10 -20 16 -20 12 0 8 11 -31 99 l-24 55 -28 -65z
m44 -16 c0 -7 -9 -13 -20 -13 -17 0 -18 3 -8 25 8 19 14 22 20 13 4 -7 8 -19
8 -25z"/>
<path d="M6398 2294 c-11 -11 -10 -88 2 -118 11 -30 51 -43 86 -27 22 10 24
16 24 83 0 87 -17 82 -22 -7 -3 -56 -5 -60 -29 -63 -36 -4 -47 14 -51 82 -2
32 -6 54 -10 50z"/>
<path d="M6590 2226 c0 -44 4 -76 10 -76 6 0 10 24 10 53 l0 52 50 -52 c27
-29 52 -53 55 -53 3 0 5 34 5 76 0 47 -4 73 -10 69 -5 -3 -10 -30 -10 -58 l-1
-52 -54 59 -55 59 0 -77z"/>
<path d="M6803 2225 c0 -44 2 -61 4 -37 2 23 2 59 0 80 -2 20 -4 1 -4 -43z"/>
<path d="M6890 2297 c0 -9 53 -133 59 -140 8 -8 61 107 61 133 0 23 -16 -1
-35 -53 -20 -54 -25 -52 -50 16 -10 26 -22 47 -26 47 -5 0 -9 -1 -9 -3z"/>
<path d="M7097 2293 c-3 -5 -4 -39 -3 -78 1 -69 1 -70 29 -73 16 -2 36 0 45 4
13 6 8 9 -18 13 -29 5 -35 10 -35 31 0 20 6 26 28 28 37 4 35 22 -3 22 -23 0
-30 4 -30 20 0 16 7 20 30 20 17 0 30 5 30 10 0 12 -67 14 -73 3z"/>
<path d="M7257 2293 c-11 -10 -8 -143 3 -143 6 0 10 15 10 33 l0 32 35 -40
c37 -43 49 -35 14 9 l-22 27 22 15 c25 18 27 37 5 58 -16 16 -55 22 -67 9z
m58 -38 c0 -13 -8 -21 -22 -23 -19 -3 -23 1 -23 23 0 22 4 26 23 23 14 -2 22
-10 22 -23z"/>
<path d="M7441 2286 c-18 -22 -5 -52 29 -66 39 -16 43 -60 6 -60 -13 0 -26 6
-29 13 -2 6 -8 9 -12 5 -12 -12 15 -38 39 -38 56 0 63 61 11 91 -35 21 -45 44
-22 52 6 2 20 0 31 -5 14 -8 17 -7 14 4 -6 19 -52 22 -67 4z"/>
<path d="M7600 2226 c0 -44 4 -76 10 -76 6 0 10 30 10 69 0 39 -4 73 -10 76
-6 4 -10 -22 -10 -69z"/>
<path d="M7700 2290 c0 -5 9 -10 20 -10 18 0 20 -7 20 -72 0 -39 3 -68 6 -65
4 3 7 30 7 59 0 66 4 78 28 78 10 0 19 5 19 10 0 6 -22 10 -50 10 -27 0 -50
-4 -50 -10z"/>
<path d="M7880 2295 c0 -3 11 -23 25 -45 14 -22 26 -56 26 -77 l2 -38 6 40 c4
23 17 57 29 77 31 49 27 60 -7 19 l-28 -34 -19 31 c-16 28 -34 42 -34 27z"/>
<path d="M4162 2223 c-30 -68 -33 -97 -5 -55 22 32 66 30 83 -5 7 -16 15 -23
17 -16 5 13 -48 143 -58 143 -4 0 -20 -30 -37 -67z m51 7 c4 -15 0 -20 -14
-20 -18 0 -26 20 -12 33 11 12 21 8 26 -13z"/>
<path d="M4963 2220 c-17 -38 -28 -72 -24 -75 5 -2 13 7 19 20 15 32 66 35 82
5 6 -11 15 -20 20 -20 4 0 -6 32 -23 70 -17 39 -34 70 -37 70 -3 0 -20 -31
-37 -70z m51 14 c9 -23 8 -24 -14 -24 -11 0 -20 2 -20 4 0 12 13 36 20 36 4 0
11 -7 14 -16z"/>
<path d="M3005 1885 c-30 -29 -32 -58 -5 -85 39 -39 110 -11 110 44 0 25 -41
66 -67 66 -8 0 -25 -11 -38 -25z m63 -11 c38 -26 22 -74 -25 -74 -33 0 -49 35
-28 66 18 28 23 29 53 8z"/>
</g>
</svg>
