<svg width="668" height="906" viewBox="0 0 668 906" fill="none" xmlns="http://www.w3.org/2000/svg">
<path d="M518.31 172.58C537.31 162.01 566.92 183.58 580.01 195.69C595.31 209.77 607.65 227.69 617.14 246.14C660.23 329.9 682.88 429.55 647.47 520.31C635.545 551.036 616.94 578.727 593 601.38C579.54 614.05 551.84 626 547.8 645.38C546.934 650.192 547.277 655.144 548.8 659.79C554.15 677.55 570.3 689.86 582.64 702.79C641.89 765 599.05 861.44 535.7 903" stroke="#CCDDE2" stroke-width="4.72" stroke-miterlimit="10"/>
<path d="M53.6699 499.181C72.1699 479.531 95.8099 466.251 119.58 454.031C145.32 440.801 170.65 427.481 194.05 410.301C208.296 399.864 221.774 388.418 234.38 376.051" stroke="#CCDDE2" stroke-width="4.72" stroke-miterlimit="10"/>
<path d="M23.64 748.07C-4.57764e-05 687 -6.00004 617 18.66 556" stroke="#CCDDE2" stroke-width="4.72" stroke-miterlimit="10"/>
<path d="M333.41 116.761V51.3008C333.41 46.7921 331.619 42.4681 328.431 39.28C325.243 36.0918 320.919 34.3008 316.41 34.3008H99.6399C95.1309 34.3008 90.8069 36.0918 87.6189 39.28C84.4309 42.4681 82.6399 46.7921 82.6399 51.3008V359.121C82.6589 363.617 84.4579 367.923 87.6439 371.096C90.8299 374.269 95.1439 376.051 99.6399 376.051H316.44C318.545 376.067 320.632 375.666 322.58 374.871" stroke="black" stroke-width="4.72" stroke-linecap="round" stroke-linejoin="round"/>
<path d="M309.53 44.6992H106.56C97.5739 44.6992 90.2899 51.9836 90.2899 60.969V349.439C90.2899 358.425 97.5739 365.709 106.56 365.709H309.53C318.516 365.709 325.8 358.425 325.8 349.439V60.969C325.8 51.9836 318.516 44.6992 309.53 44.6992Z" fill="#4E944F"/>
<path d="M306.37 69.5389H112.29C107.794 69.5389 104.15 73.1829 104.15 77.6789V121.499C104.15 125.995 107.794 129.639 112.29 129.639H306.37C310.866 129.639 314.51 125.995 314.51 121.499V77.6789C314.51 73.1829 310.866 69.5389 306.37 69.5389Z" fill="#4E944F"/>
<path d="M208.04 94.862C211.475 94.862 214.26 92.077 214.26 88.642C214.26 85.207 211.475 82.422 208.04 82.422C204.605 82.422 201.82 85.207 201.82 88.642C201.82 92.077 204.605 94.862 208.04 94.862Z" fill="#D7E8F0"/>
<path d="M190.67 116.761C190.67 112.154 192.5 107.736 195.757 104.478C199.015 101.221 203.433 99.391 208.04 99.391C212.647 99.391 217.065 101.221 220.322 104.478C223.58 107.736 225.41 112.154 225.41 116.761H190.67Z" fill="#D7E8F0"/>
<path d="M209.31 194.051C202.683 194.047 196.203 196.009 190.691 199.688C185.179 203.368 180.882 208.599 178.344 214.722C175.806 220.844 175.141 227.581 176.433 234.081C177.725 240.582 180.916 246.553 185.602 251.239C190.288 255.925 196.259 259.116 202.759 260.408C209.26 261.7 215.997 261.035 222.119 258.497C228.241 255.959 233.473 251.662 237.153 246.15C240.832 240.638 242.794 234.158 242.79 227.531C242.787 218.652 239.259 210.138 232.981 203.86C226.703 197.582 218.189 194.053 209.31 194.051ZM209.31 252.931C208.013 252.931 206.769 252.416 205.852 251.499C204.935 250.581 204.42 249.338 204.42 248.041C204.42 246.744 204.935 245.5 205.852 244.583C206.769 243.666 208.013 243.151 209.31 243.151C210.607 243.151 211.851 243.666 212.768 244.583C213.685 245.5 214.2 246.744 214.2 248.041C214.2 249.338 213.685 250.581 212.768 251.499C211.851 252.416 210.607 252.931 209.31 252.931ZM215.51 215.281C214.46 222.541 213.57 230.191 211.44 237.281C210.92 238.961 207.73 238.961 207.21 237.281C205.68 231.971 204.504 226.566 203.69 221.101C203.04 217.101 200.69 210.701 202.94 206.821C204.88 203.381 210.39 202.951 213.57 204.751C217.51 207.001 216 211.671 215.51 215.281Z" fill="#D7E8F0"/>
<path d="M209.31 252.928C212.011 252.928 214.2 250.739 214.2 248.038C214.2 245.338 212.011 243.148 209.31 243.148C206.609 243.148 204.42 245.338 204.42 248.038C204.42 250.739 206.609 252.928 209.31 252.928Z" fill="white"/>
<path d="M215.51 215.28C214.46 222.54 213.57 230.19 211.44 237.28C210.92 238.96 207.73 238.96 207.21 237.28C205.68 231.971 204.504 226.566 203.69 221.1C203.04 217.1 200.69 210.7 202.94 206.82C204.88 203.38 210.39 202.95 213.57 204.75C217.51 207 216 211.67 215.51 215.28Z" fill="white"/>
<path d="M125.19 156.48H288.75" stroke="white" stroke-width="4.72" stroke-miterlimit="10"/>
<path d="M125.19 172.57H288.75" stroke="white" stroke-width="4.72" stroke-miterlimit="10"/>
<path d="M125.19 276.25H288.75" stroke="white" stroke-width="4.72" stroke-miterlimit="10"/>
<path d="M328.57 317.742C329.19 318.222 330.27 116.042 330.27 116.042L268.74 92.262C268.74 92.262 223 204.372 225.77 205.502L238.12 210.502C238.12 210.502 241.17 208.092 248.24 225.502C255.31 242.912 306.27 300.592 328.57 317.742Z" fill="white"/>
<path d="M163.18 291.48H250.76" stroke="white" stroke-width="4.72" stroke-miterlimit="10"/>
<path d="M574.78 408.71C573.98 417.43 563.22 517.45 573.65 536.98C577.43 544.05 539.91 537.28 537.65 536.76C503.65 528.76 471.81 514.01 442.01 496.07C412.21 478.13 385.88 454.52 354.81 438.61C349.07 435.67 336.36 429.23 340.12 420.8C346.52 406.44 354.38 386.62 355 369.09L354.81 346.09C354.81 346.09 350.27 331.65 365.08 344.3C379.89 356.95 447.66 390.3 491.53 351.66C535.4 313.02 538 282.46 538 282.46C538 282.46 509.91 213.72 429.94 255.77L458.19 182.77C458.19 182.77 454.32 177.86 466.56 178.77C478.8 179.68 501.5 173.63 504.31 151.2C504.31 151.2 504.53 143.88 517.48 157.72C530.43 171.56 591.63 225.61 574.78 408.71Z" fill="#2E2E2E"/>
<path d="M417.56 149.769C424.422 144.737 432.106 140.937 440.27 138.539" stroke="black" stroke-width="4.72" stroke-miterlimit="10"/>
<path d="M387.16 491.07L332.16 689.91L282.16 870.73L250.32 873.73C243.02 874.403 236.235 877.777 231.292 883.191C226.35 888.605 223.607 895.67 223.6 903H322.07L393.39 780.08L446.44 688.63L529.38 545.63C531.78 541.46 534.11 537.29 536.38 533.03C536.418 532.981 536.439 532.922 536.44 532.86" stroke="black" stroke-width="4.72" stroke-miterlimit="10"/>
<path d="M572.74 424.002C573.49 419.142 574.15 414.282 574.74 409.392C574.74 409.162 574.74 408.962 574.8 408.732C578.166 379.118 578.882 349.263 576.94 319.522C576.953 319.436 576.953 319.348 576.94 319.262C574.74 286.892 568.8 252.892 556.94 219.742C553.496 210.181 549.237 200.933 544.21 192.102C543.84 191.372 543.42 190.652 542.96 189.932C541.38 187.172 539.68 184.482 537.96 181.822C535.63 178.312 533.16 174.902 530.57 171.652C526.708 166.717 522.425 162.126 517.77 157.932C517.74 157.921 517.712 157.904 517.69 157.882C517.667 157.859 517.65 157.832 517.64 157.802C514.181 154.739 510.505 151.932 506.64 149.402C505.92 148.912 505.2 148.452 504.47 147.992C504.357 147.905 504.236 147.828 504.11 147.762" stroke="black" stroke-width="4.72" stroke-miterlimit="10"/>
<path d="M446.44 688.629L523.78 902.999H412.18C412.18 896.034 414.708 889.307 419.295 884.066C423.883 878.826 430.217 875.43 437.12 874.509L461.41 871.259C461.41 871.259 428.75 828.259 393.41 780.069" stroke="black" stroke-width="4.72" stroke-miterlimit="10"/>
<path d="M460.16 177.699L426.64 264.259C425.628 266.872 424.106 269.258 422.163 271.277C420.22 273.297 417.894 274.909 415.322 276.021C412.75 277.134 409.982 277.723 407.18 277.755C404.378 277.787 401.597 277.262 399 276.209L319.6 244.069C319.561 243.961 319.527 243.851 319.5 243.739C318.5 239.739 308.24 201.399 295.8 201.399C286.25 201.399 290.8 220.309 294.8 231.009C295.26 232.159 295.69 233.239 296.08 234.159L295.46 233.899L233.29 208.559L272.5 105.199L349.05 134.769L460.16 177.699Z" fill="#D7E8F0"/>
<path d="M296.06 234.162C291.89 224.612 285.25 201.402 295.81 201.402C308.25 201.402 318.5 239.772 319.51 243.742L319.61 244.072L399 276.222C401.601 277.273 404.385 277.796 407.191 277.761C409.996 277.725 412.766 277.132 415.34 276.015C417.913 274.898 420.239 273.28 422.18 271.255C424.122 269.231 425.642 266.84 426.65 264.222L464 167.722L345.28 121.832L268.74 92.262L225.74 205.502L296.06 234.162Z" stroke="black" stroke-width="4.72" stroke-miterlimit="10"/>
<path d="M542.15 231.73C544.53 273.23 535.26 326.32 482.35 357.57C404.08 403.85 300.49 299 262.14 248.12C255.803 239.764 250.451 230.704 246.19 221.12C244.898 218.331 243.815 215.45 242.95 212.5" stroke="black" stroke-width="4.72" stroke-miterlimit="10"/>
<path d="M354.12 337.129C354.12 337.129 360.12 380.839 341.62 417.999L341.7 417.899C341.7 417.899 341.7 417.969 341.64 417.999C313.24 471.269 272.58 556.249 295.26 617.999C302.97 638.999 316.26 663.999 332.15 689.919" stroke="black" stroke-width="4.72" stroke-miterlimit="10"/>
<path d="M491.83 83.831L491.89 84.111C492.371 89.966 490.507 95.772 486.708 100.252C482.908 104.732 477.484 107.52 471.63 108.001C467.882 108.326 464.115 107.668 460.7 106.091C459.722 105.676 458.782 105.178 457.89 104.601C457.525 104.347 457.227 104.008 457.021 103.614C456.815 103.219 456.707 102.781 456.707 102.336C456.707 101.891 456.815 101.453 457.021 101.059C457.227 100.664 457.525 100.325 457.89 100.071C462.19 96.971 466.12 92.651 467.24 87.591C467.576 86.035 467.604 84.428 467.32 82.861C467.014 80.864 466.19 78.983 464.93 77.404C463.67 75.825 462.019 74.603 460.14 73.861C459.552 73.687 458.943 73.589 458.33 73.571C456.6 73.431 454.33 73.651 453.88 74.931C456.088 68.726 456.179 61.964 454.14 55.701C452.872 51.8262 450.734 48.2928 447.89 45.3712C448.019 46.5031 447.898 47.6496 447.533 48.7291C447.169 49.8086 446.571 50.7945 445.783 51.6166C444.994 52.4388 444.034 53.077 442.97 53.486C441.907 53.894 440.766 54.063 439.63 53.981C430.82 53.681 429.16 45.2811 429.16 45.2811C429.16 45.2811 429.16 45.3812 429.16 45.4412C425.32 55.011 414.16 55.271 406.16 51.0211C403.323 49.5655 400.831 47.5197 398.85 45.0211C396.58 35.2111 404.67 25.7312 414 24.3712C414.2 18.1312 418.75 11.4511 424.89 10.9411C427.029 10.7583 429.178 11.1527 431.113 12.0831C433.048 13.0136 434.697 14.446 435.89 16.2311C436.06 16.5011 436.25 16.7911 436.4 17.0911C438.91 13.4511 443.02 9.46113 447.4 9.09113C450.438 8.87793 453.468 9.60393 456.08 11.1709C458.692 12.7379 460.758 15.07 462 17.8511C462 17.4211 465.85 15.6611 466.24 15.5011C469.836 14.1341 473.784 14.0024 477.463 15.1267C481.142 16.251 484.343 18.5675 486.56 21.7111C486.783 22.5802 486.93 23.4668 487 24.3612C487.22 27.0357 486.809 29.7245 485.8 32.2111C487.221 32.6164 488.549 33.2958 489.71 34.2111C492.222 36.0503 493.908 38.8065 494.4 41.8811C494.45 42.1911 494.48 42.5011 494.5 42.8111C494.7 45.1542 494.199 47.5039 493.06 49.5611C496.017 50.4059 498.703 52.008 500.852 54.209C503 56.41 504.537 59.134 505.31 62.111C505.554 63.096 505.718 64.1 505.8 65.111C506.141 69.396 504.912 73.658 502.341 77.103C499.771 80.547 496.034 82.939 491.83 83.831Z" fill="#4E944F"/>
<path d="M491.83 83.829L491.89 84.109C492.371 89.964 490.507 95.77 486.708 100.25C482.908 104.73 477.485 107.518 471.63 107.999C467.883 108.324 464.115 107.666 460.7 106.089C465 102.989 468.93 98.659 470.04 93.599C470.434 91.718 470.391 89.771 469.914 87.909C469.437 86.047 468.54 84.32 467.29 82.859C466.984 80.863 466.16 78.981 464.9 77.402C463.64 75.823 461.989 74.601 460.11 73.859C459.522 73.685 458.913 73.587 458.3 73.569C458.893 67.315 457.422 61.038 454.11 55.699C452.842 51.8244 450.704 48.2909 447.86 45.3693C447.989 46.5012 447.868 47.6478 447.503 48.7273C447.139 49.8068 446.542 50.7927 445.753 51.6148C444.964 52.437 444.004 53.075 442.94 53.484C441.877 53.892 440.736 54.062 439.6 53.979C430.79 53.679 429.13 45.2793 429.13 45.2793C429.13 45.2793 429.13 45.3793 429.13 45.4393C425.29 55.009 414.13 55.269 406.13 51.0193C403.293 49.5636 400.801 47.5178 398.82 45.0193C396.55 35.2093 404.64 25.7293 413.97 24.3693C414.17 18.1293 418.72 11.4493 424.86 10.9393C426.999 10.7565 429.148 11.1508 431.083 12.0813C433.018 13.0117 434.667 14.4442 435.86 16.2293C436.03 16.4993 436.22 16.7893 436.37 17.0893C438.88 13.4493 442.99 9.45931 447.37 9.08931C450.413 8.86971 453.45 9.59271 456.068 11.1601C458.685 12.7275 460.757 15.0631 462 17.8493C462 17.4193 465.85 15.6593 466.24 15.4993C469.836 14.1323 473.784 14.0005 477.463 15.1249C481.142 16.2492 484.343 18.5657 486.56 21.7093C486.783 22.5783 486.93 23.465 487 24.3593C487.22 27.0338 486.809 29.7227 485.8 32.2093C487.221 32.6146 488.55 33.294 489.71 34.2093C489.527 35.5831 489.167 36.9274 488.64 38.2093C490.858 38.8588 492.853 40.1121 494.4 41.8293C494.45 42.1393 494.48 42.4493 494.5 42.7593C494.7 45.1024 494.199 47.452 493.06 49.5093C494.548 49.9338 495.974 50.5525 497.3 51.3493C497.084 52.8113 496.61 54.223 495.9 55.519C499.681 56.583 502.995 58.886 505.31 62.059C505.554 63.044 505.718 64.048 505.8 65.059C506.154 69.352 504.931 73.627 502.359 77.082C499.787 80.537 496.044 82.936 491.83 83.829Z" fill="#4E944F"/>
<path d="M414.12 63.7889C414.12 63.7889 426.8 63.9689 429.71 74.6689" stroke="black" stroke-width="4.72" stroke-miterlimit="10"/>
<path d="M410.85 95.852C407.965 96.564 404.97 96.71 402.03 96.282C401.477 96.187 400.956 95.96 400.51 95.62C400.065 95.279 399.708 94.836 399.471 94.328C399.235 93.82 399.124 93.262 399.15 92.702C399.176 92.142 399.337 91.596 399.62 91.112C402.26 86.642 404.98 82.222 407.94 77.972C408.404 77.431 408.69 76.761 408.76 76.052C408.76 76.052 407.54 62.822 410.21 52.6719" stroke="black" stroke-width="4.72" stroke-miterlimit="10"/>
<path d="M420.828 75.049C421.096 72.917 419.843 71.004 418.03 70.776C416.216 70.548 414.528 72.091 414.26 74.222C413.992 76.354 415.245 78.267 417.059 78.495C418.872 78.723 420.56 77.18 420.828 75.049Z" fill="black"/>
<path d="M480.74 105.191C481.01 107.841 492.9 126.191 503.65 146.451C503.645 146.484 503.645 146.518 503.65 146.551C503.85 146.981 504.05 147.441 504.28 147.901" stroke="black" stroke-width="4.72" stroke-linecap="round" stroke-linejoin="round"/>
<path d="M437.85 124.59L441.59 151.21" stroke="black" stroke-width="4.72" stroke-miterlimit="10"/>
<path d="M406.27 96.52C406.27 96.52 411.69 122.88 425.02 126.87C438.35 130.86 449.92 114.23 449.92 114.23" stroke="black" stroke-width="4.72" stroke-linecap="round" stroke-linejoin="round"/>
<path d="M409.91 108.41C411.681 109.445 413.682 110.022 415.732 110.088C417.782 110.154 419.816 109.708 421.65 108.79" stroke="black" stroke-width="4.72" stroke-linecap="round" stroke-linejoin="round"/>
<path d="M434.94 15.8897C434.781 13.8449 434.092 11.8768 432.94 10.1797C431.475 7.9309 429.298 6.2382 426.758 5.3723C424.217 4.5063 421.46 4.5169 418.926 5.4026C416.393 6.2882 414.229 7.9976 412.781 10.2577C411.333 12.5177 410.685 15.1978 410.94 17.8697" stroke="black" stroke-width="4.72" stroke-miterlimit="10" stroke-linecap="round"/>
<path d="M429.78 34.0919C429.528 31.2032 428.577 28.4192 427.009 25.9802C425.441 23.5411 423.304 21.5202 420.78 20.0919C408.07 12.9819 391.78 26.7919 396.33 40.4719C397.93 45.2319 401.74 48.6919 406.08 50.9919C414.08 55.242 425.28 54.992 429.08 45.4119L429.14 45.2619C429.14 45.2619 430.8 53.652 439.61 53.962C440.748 54.042 441.889 53.871 442.953 53.462C444.017 53.052 444.979 52.4131 445.769 51.5907C446.559 50.7683 447.158 49.7822 447.525 48.7024C447.891 47.6225 448.016 46.4753 447.89 45.3419C455.47 53.142 457.45 64.802 453.89 74.912C454.54 73.092 458.89 73.422 460.15 73.842C465.57 75.732 468.46 82.142 467.26 87.582C466.13 92.672 462.2 96.972 457.92 100.092C457.555 100.345 457.257 100.683 457.051 101.076C456.845 101.47 456.737 101.908 456.737 102.352C456.737 102.796 456.845 103.234 457.051 103.627C457.257 104.021 457.555 104.359 457.92 104.612C461.995 107.231 466.824 108.427 471.65 108.012C477.503 107.53 482.925 104.744 486.724 100.266C490.523 95.788 492.389 89.985 491.91 84.132L491.85 83.852C495.713 83.043 499.195 80.964 501.739 77.946C504.283 74.928 505.743 71.145 505.887 67.201C506.03 63.257 504.85 59.377 502.532 56.182C500.215 52.9873 496.894 50.6601 493.1 49.5719C494.239 47.5146 494.74 45.1649 494.54 42.8219C494.265 39.6432 492.744 36.7025 490.308 34.6416C487.872 32.5807 484.72 31.567 481.54 31.8219" stroke="black" stroke-width="4.72" stroke-linecap="round" stroke-linejoin="round"/>
<path d="M434.43 9.69909C436.83 5.69909 439.48 3.45909 444.43 3.04909C447.501 2.79819 450.574 3.51349 453.219 5.09489C455.864 6.67629 457.948 9.04479 459.18 11.8691C459.01 11.4791 463.03 9.64909 463.44 9.48909C465.043 8.87629 466.728 8.50559 468.44 8.38909C473.006 8.14339 477.491 9.67049 480.958 12.6516C484.426 15.6328 486.608 19.8377 487.05 24.3891C487.27 27.0636 486.859 29.7524 485.85 32.2391" stroke="black" stroke-width="4.72" stroke-linecap="square" stroke-linejoin="round"/>
<path d="M503.65 146.461C503.65 146.461 512.99 177.521 459.59 179.201" stroke="black" stroke-width="4.72" stroke-miterlimit="10"/>
<path d="M226 457.648C225.91 434.938 248.23 428.828 258.92 429.028C325.17 430.288 335.16 323.148 335.16 323.148" stroke="black" stroke-width="4.72" stroke-linecap="round" stroke-linejoin="round"/>
<path d="M572.74 424C572.74 424 564.92 501.14 572.74 527.1C580.56 553.06 535.59 532.69 535.59 532.69" stroke="black" stroke-width="4.72" stroke-miterlimit="10"/>
<path d="M124.71 482.141H72.72" stroke="black" stroke-width="4.72" stroke-linecap="round" stroke-linejoin="round"/>
<path d="M310.99 482.141H211.51" stroke="black" stroke-width="4.72" stroke-linecap="round" stroke-linejoin="round"/>
<path d="M197.24 482.141H138.51" stroke="black" stroke-width="4.72" stroke-linecap="round" stroke-linejoin="round"/>
<path d="M195.73 457.648H137.66" stroke="black" stroke-width="4.72" stroke-linecap="round" stroke-linejoin="round"/>
<path d="M242 457.648H210.65" stroke="black" stroke-width="4.72" stroke-linecap="round" stroke-linejoin="round"/>
<path d="M321.69 457.648H261.14" stroke="black" stroke-width="4.72" stroke-linecap="round" stroke-linejoin="round"/>
<path d="M123.15 457.648H112.88" stroke="black" stroke-width="4.72" stroke-linecap="round" stroke-linejoin="round"/>
<path d="M193.81 455.449H207.24C207.24 455.449 222.63 469.979 207.24 486.609V498.229H193.81" stroke="black" stroke-width="4.72" stroke-linecap="round" stroke-linejoin="round"/>
<path d="M134.67 455.449C134.67 455.449 150.06 469.979 134.67 486.609V498.229" stroke="black" stroke-width="4.72" stroke-linecap="round" stroke-linejoin="round"/>
<path d="M134.67 498.229H121.24V486.609C136.64 469.979 121.24 455.449 121.24 455.449H134.67" stroke="black" stroke-width="4.72" stroke-linecap="round" stroke-linejoin="round"/>
<path d="M193.81 455.449C193.81 455.449 209.21 469.979 193.81 486.609V498.229" stroke="black" stroke-width="4.72" stroke-linecap="round" stroke-linejoin="round"/>
<path d="M121.24 486.609H134.67" stroke="black" stroke-width="4.72" stroke-linecap="round" stroke-linejoin="round"/>
<path d="M193.81 486.609H207.24" stroke="black" stroke-width="4.72" stroke-linecap="round" stroke-linejoin="round"/>
<path d="M245.58 450.23C243.866 452.417 242.644 454.948 242 457.65C241.152 461.641 240.832 465.726 241.05 469.8C241.11 473.8 241.61 477.9 245.41 480C251.12 483.19 257.98 478.63 258.28 472.09C258.607 467.174 259.569 462.32 261.14 457.65C261.2 457.42 261.27 457.22 261.33 457.03" stroke="black" stroke-width="4.72" stroke-linecap="round" stroke-linejoin="round"/>
<path d="M261.33 457C266.09 456 273.18 453.39 276.79 446.66" stroke="black" stroke-width="4.72" stroke-linecap="round" stroke-linejoin="round"/>
<path d="M228.85 482.141C228.85 482.141 232.59 492.001 242 493.201C251.41 494.401 245.46 482.141 245.46 482.141C245.46 482.141 249.36 490.781 254.08 491.071C258.8 491.361 262.88 487.071 261.25 482.141C261.25 482.141 262.69 490.071 269.67 489.201C276.65 488.331 273.77 482.141 273.77 482.141" stroke="black" stroke-width="4.72" stroke-linecap="round" stroke-linejoin="round"/>
<g opacity="0.54">
<path opacity="0.54" d="M121.51 622.589L114.76 720.069C111.1 726.689 106.98 732.549 103.31 736.169C102.82 735.989 102.31 735.809 101.84 735.589C100.94 735.279 100.05 734.919 99.2 734.589C85.52 728.589 75.2 717.419 72.1 704.809C69.38 693.719 71.84 681.739 66.56 671.319C60.12 658.489 42.56 650.439 40.45 635.949C38.45 622.399 50.64 609.949 48.67 596.689C46.39 581.689 27.97 572.769 24.53 558.099C22.38 548.979 24.3 538.519 23.53 529.099C22.62 518.604 20.843 508.202 18.22 497.999C45.41 495.999 73.09 510.999 81.9 532.469C89.1 550.039 84.76 570.569 96.03 586.579C102.15 595.249 112.35 601.729 117.62 610.809C119.245 613.638 120.422 616.7 121.11 619.889C121.16 620.109 121.16 620.339 121.2 620.509C121.25 620.869 121.29 621.139 121.33 621.409C121.42 622.189 121.51 622.589 121.51 622.589Z" fill="#4E944F"/>
<path opacity="0.54" d="M121.56 622.551H121.51C121.51 622.551 121.42 622.151 121.33 621.391C121.415 621.699 121.475 622.013 121.51 622.331C121.56 622.411 121.56 622.501 121.56 622.551Z" fill="#4E944F"/>
</g>
<path d="M211.39 584.542C207.81 597.192 188.59 604.882 186.26 617.852C184.2 629.342 196.9 640.072 194.8 651.742C192.57 664.272 174.32 671.202 167.62 682.292C162.16 691.292 164.71 701.602 161.89 711.172C158.63 722.042 147.89 731.742 133.54 736.882C132.65 737.202 131.8 737.512 130.9 737.782C130.41 737.912 129.9 738.092 129.38 738.222C124.64 734.332 119.23 727.492 114.8 720.112L121.55 622.632H121.6C126.83 618.202 132.82 614.132 136.98 609.212C141.5 603.892 143.6 598.082 144.98 592.002H145V591.332C147 581.712 147.15 571.652 151.67 562.532C160.83 543.972 189.58 531.052 217.89 532.752C215.221 541.515 213.393 550.512 212.43 559.622C211.61 567.682 213.63 576.712 211.39 584.542Z" fill="#4E944F"/>
<path d="M145 591.25V591.92H144.87C144.94 591.69 145 591.47 145 591.25Z" fill="#4E944F"/>
<path d="M145 591.248C145 591.468 144.91 591.688 144.87 591.918C143.53 597.998 141.43 603.808 136.87 609.128C132.71 614.048 126.72 618.128 121.49 622.548C121.49 622.548 121.49 622.408 121.44 622.368C121.405 622.051 121.345 621.736 121.26 621.428C121.26 621.158 121.18 620.888 121.13 620.528C121.13 620.358 121.13 620.128 121.04 619.908C120.352 616.72 119.175 613.657 117.55 610.828C112.28 601.748 102.08 595.268 95.96 586.598C95.96 586.598 98.73 540.898 122.11 526.988C144.32 513.838 145 583.638 145 591.248Z" fill="#4E944F"/>
<path d="M145 591.25V591.92H144.87C144.94 591.69 145 591.47 145 591.25Z" fill="#4E944F"/>
<path d="M121.51 622.37V622.59C121.51 622.59 121.42 622.19 121.33 621.43C121.415 621.738 121.475 622.052 121.51 622.37Z" fill="#4E944F"/>
<path d="M119.43 622.601C124.64 618.161 130.68 614.041 134.86 609.131C146.58 595.291 142.07 577.611 149.59 562.441C158.74 543.901 187.59 530.981 215.83 532.681C213.136 541.439 211.301 550.438 210.35 559.551C209.51 567.661 211.52 576.701 209.35 584.551C205.75 597.191 186.54 604.861 184.2 617.841C182.13 629.321 194.86 640.051 192.75 651.721C190.51 664.251 172.28 671.171 165.56 682.261C160.09 691.261 162.66 701.571 159.82 711.161C156.38 722.721 144.45 732.941 128.82 737.751C128.32 737.921 127.82 738.091 127.28 738.221C122.54 734.331 117.13 727.501 112.69 720.111" stroke="black" stroke-width="4.72" stroke-miterlimit="10"/>
<path d="M198.55 547.219C156.36 592.629 136.55 688.379 128.8 737.769C128.17 741.939 127.6 745.769 127.11 749.189" stroke="black" stroke-width="4.72" stroke-miterlimit="10"/>
<path d="M202.44 777L183 891.54C182.541 894.68 180.983 897.556 178.602 899.654C176.221 901.753 173.173 902.939 170 903H68.64C65.441 902.93 62.372 901.718 59.988 899.584C57.604 897.449 56.062 894.532 55.64 891.36L37.74 777H202.44Z" stroke="black" stroke-width="4.72" stroke-miterlimit="10"/>
<path d="M220.88 764.241C220.33 771.461 214.61 777.021 207.75 777.021H32.7499C25.9599 777.021 20.2899 771.581 19.6399 764.441C18.8899 756.281 24.9799 749.211 32.7499 749.211H207.75C215.45 749.211 221.51 756.141 220.88 764.241Z" stroke="black" stroke-width="4.72" stroke-miterlimit="10"/>
<path d="M101.23 736.189C108.74 728.729 117.93 712.129 122.01 698.559C125.36 687.369 119.45 675.859 118.1 664.389C115.98 646.389 124.91 627.099 115.5 610.819C110.26 601.739 100.06 595.279 93.9399 586.579C82.6599 570.579 86.9899 550.079 79.7799 532.509C70.9999 510.999 43.3199 496.049 16.1399 497.999C18.7379 508.215 20.4969 518.626 21.3999 529.129C22.2099 538.519 20.2699 548.979 22.3999 558.129C25.8499 572.799 44.2899 581.679 46.5499 596.709C48.5499 609.999 36.3299 622.429 38.3399 635.959C40.4999 650.469 57.9899 658.489 64.4599 671.339C69.7099 681.779 67.2499 693.739 69.9799 704.819C73.3999 718.659 85.4999 730.819 101.23 736.189Z" stroke="black" stroke-width="4.72" stroke-miterlimit="10"/>
<path d="M32.73 514.859C73.23 567.459 92.29 678.359 99.73 735.609C100.37 740.609 100.94 745.119 101.39 749.189" stroke="black" stroke-width="4.72" stroke-miterlimit="10"/>
<path d="M93.9399 586.581C93.9399 586.581 96.7199 540.881 120.09 526.981C143.46 513.081 143 591.001 143 591.001" stroke="black" stroke-width="4.72" stroke-miterlimit="10"/>
<path d="M119.43 622.6C119.43 622.6 114.65 596.45 123.02 570.75" stroke="black" stroke-width="4.72" stroke-miterlimit="10"/>
<path d="M657.33 482.141H569.84" stroke="black" stroke-width="4.72" stroke-linecap="round" stroke-linejoin="round"/>
<path d="M658.75 457.648H572.64" stroke="black" stroke-width="4.72" stroke-linecap="round" stroke-linejoin="round"/>
<path d="M44.83 903H602.01" stroke="black" stroke-width="4.72" stroke-miterlimit="10"/>
</svg>
