<svg width="900" height="788" viewBox="0 0 900 788" fill="none" xmlns="http://www.w3.org/2000/svg">
<path d="M180 245.999C180 245.999 126.17 86.7194 313.93 106.159C501.69 125.599 411.98 55.0994 482.93 11.3494C553.88 -32.4006 762.93 103.709 675.47 234.989C588.01 366.269 815.24 246.179 862.64 443.599C891.89 565.429 819.32 655.099 759.45 705.929" stroke="#CCDDE2" stroke-width="5.47" stroke-miterlimit="10"/>
<path d="M777.76 553.722C763.65 472.012 713.69 398.892 632.52 372.722C611.756 366.065 590.523 360.967 569 357.472V357.582C567.878 364.365 565.22 370.803 561.23 376.402C552.77 387.992 541.11 397.512 527.61 402.472C513.83 407.572 496.76 408.232 483.97 400.212C476.27 395.392 468.8 386.902 467.45 377.742C465.91 367.422 471.17 357.652 478.57 350.832C415.85 351.342 356.85 361.662 309.57 373.412C311.209 380.273 313.478 386.968 316.35 393.412C320.369 402.395 326.048 410.538 333.09 417.412C341.873 408.711 349.563 398.973 355.99 388.412C362.138 390.424 367.56 394.2 371.58 399.269C375.599 404.338 378.041 410.476 378.6 416.922V417.252C381.08 440.662 358.54 458.252 339.6 469.072C317.72 481.652 293.33 491.072 269.37 498.902C259.49 502.142 246.65 504.902 236.22 501.522C235.097 501.164 234.001 500.726 232.94 500.212C222.54 495.112 215.58 484.422 210.15 474.652C194.68 446.902 184.62 416.652 177.8 385.602C130.47 391.652 125.05 359.602 122.24 351.742L81.75 464.932C79.626 473.068 79.397 481.583 81.078 489.822C82.76 498.061 86.309 505.805 91.452 512.458C96.594 519.111 103.194 524.496 110.743 528.2C118.293 531.904 126.591 533.827 135 533.822H302.62L378.76 729.122L400.34 784.552H523.6C513.6 784.552 508.13 782.112 504.16 778.132C500.06 774.03 497.752 768.471 497.74 762.672C497.74 750.672 507.59 740.832 523.6 740.832H524.73C523.52 740.832 522.36 740.722 521.15 740.612C521.9 740.531 522.644 740.407 523.38 740.242C522.587 740.223 521.796 740.163 521.01 740.062C528.231 739.209 534.923 735.846 539.915 730.559C544.907 725.273 547.882 718.4 548.32 711.142C548.34 710.765 548.34 710.388 548.32 710.012V709.432C548.148 701.991 545.303 694.86 540.308 689.343C535.312 683.825 528.497 680.29 521.11 679.382C521.95 679.312 522.75 679.242 523.56 679.242C522.83 679.062 522.02 678.952 521.26 678.842C522.46 678.732 523.67 678.652 524.83 678.652L615.01 679.132L631.6 679.202H651.29C652.2 679.202 653.12 679.202 653.99 679.312L683.24 679.462L702.78 679.572C710.947 679.64 718.753 682.94 724.493 688.75C730.233 694.559 733.439 702.405 733.41 710.572C733.4 715.19 732.329 719.743 730.28 723.882C738.664 722.809 746.438 718.932 752.34 712.882C766.41 698.512 772.47 677.002 776.66 657.882C784.07 623.822 783.63 587.932 777.76 553.722ZM549.92 556.022C532.93 582.172 504 579.822 504 579.822C504 579.822 501.6 582.162 496 572.202C490.4 562.242 474.45 555.432 474.45 555.432C473.18 565.432 470.55 580.632 444.45 560.932C418.35 541.232 426.22 512.512 428.45 497.342C430.68 482.172 439.57 477.142 439.57 477.142L450.07 471.602C450.07 471.602 419.7 463.792 418.24 463.502C416.78 463.212 389.73 440.562 417.18 434.582C444.63 428.602 487.42 452.382 495.69 457.082C503.96 461.782 552.29 502.662 552.29 502.662C552.29 502.662 567 529.912 549.92 556.022Z" fill="#353642"/>
<path d="M177.76 385.62C177.76 385.62 200.65 382.84 209.22 366.5L201.75 408.41C201.75 408.41 292.81 377.41 309.51 373.41C309.51 373.41 314.89 408.1 336.31 417.41L358.41 389.31C358.41 389.31 386.12 396.31 378.54 434.07C370.96 471.83 266.12 503.39 248.34 502.66C230.56 501.93 211.42 490.99 191.82 432.2L177.76 385.62Z" fill="#353642"/>
<path d="M215.05 292.261C220.85 301.701 226.68 311.121 232.7 320.421C236.41 326.151 243.17 334.321 235.98 340.311C233.64 342.105 230.814 343.151 227.87 343.311C223.25 343.721 218.4 342.611 215.59 338.641L201.59 315.441C198.8 310.814 194.369 307.408 189.181 305.899C183.992 304.391 178.426 304.892 173.59 307.301" stroke="black" stroke-width="5.47" stroke-miterlimit="10"/>
<path d="M268 322.818C271.66 331.518 269.18 337.128 264.9 339.948C257.9 344.538 248.53 342.338 243.57 335.638L215.1 292.308" stroke="black" stroke-width="5.47" stroke-miterlimit="10"/>
<path d="M239.15 279.661C249.51 292.261 262.58 315.661 269.81 325.431C277.04 335.201 288.22 329.311 288.22 329.311C297.3 324.421 295.76 316.311 291.79 306.461C282.01 282.281 268.05 266.201 252.48 255.661C204.23 223.021 154.73 247.101 140 303.441L81.75 464.931C79.626 473.068 79.397 481.583 81.078 489.822C82.76 498.061 86.309 505.805 91.452 512.458C96.594 519.111 103.194 524.496 110.743 528.2C118.293 531.903 126.591 533.826 135 533.821H302.62L400.37 784.561" stroke="black" stroke-width="5.47" stroke-miterlimit="10"/>
<path d="M299 295.37C311 291.21 310.45 272.07 293.42 265.61C274.61 258.47 241.21 248.37 232.82 245.85C232.768 245.81 232.705 245.786 232.64 245.78C232.05 245.6 231.64 245.45 231.32 245.38L230.85 245.23" stroke="black" stroke-width="5.47" stroke-miterlimit="10"/>
<path d="M476.3 486.739C465.8 474.119 437.06 466.969 418.3 463.509C415.147 462.917 412.272 461.316 410.107 458.948C407.943 456.58 406.607 453.573 406.3 450.379C406.082 448.225 406.331 446.049 407.03 443.999C408.148 440.852 410.291 438.172 413.114 436.388C415.937 434.604 419.278 433.819 422.6 434.159C454.6 437.399 487.6 447.469 512.01 469.159C512.01 469.159 630.34 559.459 644.47 568.249C650.3 571.789 655.74 567.609 651.79 562.049L650.55 559.929C643.595 547.993 635.363 536.848 626 526.689" stroke="black" stroke-width="5.47" stroke-miterlimit="10"/>
<path d="M478.49 350.82C329.67 352.06 201.75 408.4 201.75 408.4L214.52 336.82" stroke="black" stroke-width="5.47" stroke-miterlimit="10"/>
<path d="M709.63 740.389C709.63 740.389 693.42 736.719 689.11 749.699C684.8 762.679 680.3 783.329 711.29 784.549C742.28 785.769 724.08 779.679 722.29 769.649C720.5 759.619 709.63 740.389 709.63 740.389Z" fill="#353642"/>
<path d="M462 503.211C462 503.211 444.51 489.951 428.76 503.391C428.097 503.975 427.518 504.648 427.04 505.391" stroke="black" stroke-width="5.47" stroke-miterlimit="10"/>
<g opacity="0.77">
<path opacity="0.77" d="M243.51 335.591C248.51 342.301 257.87 344.491 264.84 339.891C269.07 337.091 271.55 331.511 267.98 322.891C268.63 323.841 269.22 324.681 269.8 325.451C277.02 335.261 288.21 329.351 288.21 329.351C297.29 324.461 295.76 316.351 291.79 306.491C287.905 296.725 282.808 287.486 276.62 278.991C280.67 275.201 285.48 271.371 290.55 273.051C296.02 274.871 297.55 281.731 298.17 287.451C298.46 290.111 298.75 292.741 299.04 295.401L303.42 334.561C304.88 347.561 306.34 360.751 309.51 373.441C311.149 380.302 313.418 386.997 316.29 393.441C320.309 402.424 325.988 410.567 333.03 417.441C341.813 408.74 349.503 399.002 355.93 388.441C362.078 390.453 367.5 394.229 371.52 399.298C375.539 404.367 377.981 410.505 378.54 416.951V417.281C381.02 440.691 358.48 458.281 339.54 469.101C317.66 481.681 293.27 491.101 269.31 498.931C259.43 502.171 246.59 504.931 236.16 501.551C235.037 501.193 233.941 500.755 232.88 500.241C222.48 495.141 215.52 484.451 210.09 474.681C184.09 427.931 173.29 374.251 167.6 321.091C178.98 319.521 190.32 317.771 201.52 315.361C201.52 315.361 201.52 315.441 201.59 315.471L214.5 336.881L215.56 338.661C218.36 342.661 223.21 343.731 227.84 343.331C230.784 343.185 233.612 342.138 235.94 340.331C243.12 334.331 236.38 326.191 232.66 320.461" fill="white"/>
<path opacity="0.77" d="M243.51 335.591C248.51 342.301 257.87 344.491 264.84 339.891C269.07 337.091 271.55 331.511 267.98 322.891C268.63 323.841 269.22 324.681 269.8 325.451C277.02 335.261 288.21 329.351 288.21 329.351C297.29 324.461 295.76 316.351 291.79 306.491C287.905 296.725 282.808 287.486 276.62 278.991C280.67 275.201 285.48 271.371 290.55 273.051C296.02 274.871 297.55 281.731 298.17 287.451C298.46 290.111 298.75 292.741 299.04 295.401L303.42 334.561C304.88 347.561 306.34 360.751 309.51 373.441C311.149 380.302 313.418 386.997 316.29 393.441C320.309 402.424 325.988 410.567 333.03 417.441C341.813 408.74 349.503 399.002 355.93 388.441C362.078 390.453 367.5 394.229 371.52 399.298C375.539 404.367 377.981 410.505 378.54 416.951V417.281C381.02 440.691 358.48 458.281 339.54 469.101C317.66 481.681 293.27 491.101 269.31 498.931C259.43 502.171 246.59 504.931 236.16 501.551C235.037 501.193 233.941 500.755 232.88 500.241C222.48 495.141 215.52 484.451 210.09 474.681C184.09 427.931 173.29 374.251 167.6 321.091C178.98 319.521 190.32 317.771 201.52 315.361C201.52 315.361 201.52 315.441 201.59 315.471L214.5 336.881L215.56 338.661C218.36 342.661 223.21 343.731 227.84 343.331C230.784 343.185 233.612 342.138 235.94 340.331C243.12 334.331 236.38 326.191 232.66 320.461" fill="#4E944F"/>
<path opacity="0.77" d="M246.58 338.761C251.01 344.761 258.58 344.001 264.84 339.891C268.62 337.391 271.72 338.121 268.53 330.411C269.12 331.251 269.2 328.411 269.72 329.041C276.17 337.801 269.8 325.421 269.8 325.421C278.8 336.791 298.39 326.081 294.8 317.291C291 307.821 287 293.821 281.93 286.821C285.93 283.041 285.16 283.601 290.25 286.611C291.617 287.489 292.762 288.674 293.593 290.071C294.425 291.468 294.92 293.039 295.04 294.661C295.45 298.471 295.86 302.121 296.27 305.841L300.17 340.841C301.48 352.471 302.78 364.221 305.61 375.541C307.073 381.662 309.102 387.634 311.67 393.381C315.25 401.291 326.75 414.461 333.03 420.491C340.84 412.741 350.2 398.491 355.93 389.021C366.93 392.401 366.45 402.921 367.23 414.411V414.711C369.45 435.601 349.33 451.291 332.47 460.961C312.93 472.191 291.16 480.591 269.77 487.591C260.95 490.491 249.49 492.991 240.18 489.931C239.176 489.614 238.196 489.222 237.25 488.761C227.97 484.201 221.75 474.671 216.9 465.941C195.67 427.811 185.82 384.521 180.4 341.121C180.002 337.873 180.881 334.599 182.851 331.987C184.821 329.375 187.728 327.63 190.96 327.121C197.05 326.121 203.12 325.121 209.15 323.781L209.32 323.861L220.84 342.971C223.35 346.521 223.76 343.741 227.89 343.381C230.5 343.151 235.56 342.641 237.58 340.951C243.99 335.611 240.37 333.401 237.05 328.291" fill="#4E944F"/>
</g>
<path d="M459.89 522.512C459.89 522.512 426.68 511.592 426.18 529.952" stroke="black" stroke-width="5.47" stroke-miterlimit="10"/>
<path opacity="0.54" d="M162.62 709.538L97.4901 542.678C96.6831 539.449 96.6231 536.079 97.3131 532.823C98.0041 529.568 99.4281 526.512 101.476 523.889C103.525 521.266 106.144 519.144 109.136 517.685C112.127 516.226 115.412 515.468 118.74 515.468H377.44C383.249 515.467 388.889 517.422 393.452 521.018C398.014 524.613 401.233 529.64 402.59 535.288L473.89 702.108C474.661 705.326 474.692 708.677 473.982 711.909C473.271 715.141 471.838 718.17 469.789 720.768C467.74 723.367 465.129 725.467 462.152 726.912C459.175 728.356 455.909 729.107 452.6 729.108H187.71C181.944 729.112 176.343 727.187 171.797 723.641C167.251 720.095 164.021 715.131 162.62 709.538Z" fill="white"/>
<path d="M470.7 550.658C470.7 550.658 476.09 555.598 474.04 562.658C472.52 567.888 467.32 571.188 462.17 569.398C445.77 563.728 431 554.098 427.4 537.728C425.699 529.44 425.331 520.933 426.31 512.528C427.1 504.738 428.25 496.328 430.87 488.918C434.87 477.538 447.12 469.608 459.01 475.088" stroke="black" stroke-width="5.47" stroke-miterlimit="10"/>
<path d="M162.62 709.538L97.4901 542.678C96.6831 539.449 96.6231 536.079 97.3131 532.823C98.0041 529.568 99.4281 526.512 101.476 523.889C103.525 521.266 106.144 519.144 109.136 517.685C112.127 516.226 115.412 515.468 118.74 515.468H377.44C383.249 515.467 388.889 517.422 393.452 521.018C398.014 524.613 401.233 529.64 402.59 535.288L473.89 702.108C474.661 705.326 474.692 708.677 473.982 711.909C473.271 715.141 471.838 718.17 469.789 720.768C467.74 723.367 465.129 725.467 462.152 726.912C459.175 728.356 455.909 729.107 452.6 729.108H187.71C181.944 729.112 176.343 727.187 171.797 723.641C167.251 720.095 164.021 715.131 162.62 709.538Z" fill="#4E944F"/>
<path d="M162.62 709.538L97.4901 542.678C96.6831 539.449 96.6231 536.079 97.3131 532.823C98.0041 529.568 99.4281 526.512 101.476 523.889C103.525 521.266 106.144 519.144 109.136 517.685C112.127 516.226 115.412 515.468 118.74 515.468H377.44C383.249 515.467 388.889 517.422 393.452 521.018C398.014 524.613 401.233 529.64 402.59 535.288L473.89 702.108C474.661 705.326 474.692 708.677 473.982 711.909C473.271 715.141 471.838 718.17 469.789 720.768C467.74 723.367 465.129 725.467 462.152 726.912C459.175 728.356 455.909 729.107 452.6 729.108H187.71C181.944 729.112 176.343 727.187 171.797 723.641C167.251 720.095 164.021 715.131 162.62 709.538Z" stroke="black" stroke-width="5.47" stroke-linecap="square" stroke-linejoin="round"/>
<path d="M172.15 702.818L112.06 548.818C111.317 545.839 111.263 542.73 111.901 539.727C112.539 536.724 113.853 533.905 115.744 531.486C117.634 529.067 120.051 527.11 122.81 525.764C125.57 524.418 128.6 523.718 131.67 523.718H370.33C375.688 523.716 380.891 525.519 385.1 528.835C389.309 532.151 392.279 536.788 393.53 541.998L459.32 695.908C460.03 698.878 460.058 701.97 459.402 704.952C458.746 707.934 457.422 710.728 455.531 713.125C453.641 715.522 451.231 717.46 448.484 718.792C445.737 720.125 442.723 720.818 439.67 720.818H195.29C189.979 720.823 184.819 719.054 180.628 715.794C176.436 712.533 173.453 707.967 172.15 702.818Z" fill="#4E944F"/>
<path d="M682.92 678.66L728.68 784.55" stroke="black" stroke-width="5.47" stroke-miterlimit="10"/>
<path d="M900 784.55H0" stroke="black" stroke-width="5.47" stroke-miterlimit="10"/>
<path d="M474.37 306.629C466.95 313.959 455.87 313.949 449.56 307.169" stroke="black" stroke-width="5.47" stroke-miterlimit="10"/>
<path d="M276.62 278.959C280.67 275.169 285.48 271.339 290.55 273.019C296.02 274.839 297.55 281.699 298.17 287.419C299.923 303.139 301.673 318.843 303.42 334.53C305.64 354.53 307.98 375.009 316.29 393.389C320.309 402.372 325.988 410.515 333.03 417.389" stroke="black" stroke-width="5.47" stroke-miterlimit="10"/>
<path d="M378.54 417.269V416.939C377.981 410.494 375.539 404.355 371.52 399.286C367.5 394.218 362.078 390.442 355.93 388.429C349.503 398.99 341.813 408.729 333.03 417.429C310.003 440.326 280.422 455.49 248.39 460.819C249.93 466.949 253.1 472.529 255.29 478.429C257.48 484.329 258.57 491.159 255.91 496.849C252.55 504.109 242.91 503.159 236.21 501.549C236.14 501.549 236.1 501.549 236.03 501.549" stroke="black" stroke-width="5.47" stroke-miterlimit="10"/>
<path d="M201.54 315.351C190.34 317.761 179 319.511 167.62 321.081C173.31 374.241 184.07 427.921 210.11 474.671C215.54 484.441 222.5 495.131 232.9 500.231C233.961 500.746 235.057 501.184 236.18 501.541C246.61 504.971 259.45 502.161 269.33 498.921C293.33 491.081 317.68 481.671 339.56 469.091C358.45 458.261 380.99 440.681 378.56 417.271C378.325 414.693 377.798 412.15 376.99 409.691" stroke="black" stroke-width="5.47" stroke-miterlimit="10"/>
<path d="M388.82 209.308C390.498 216.306 394.329 222.6 399.774 227.304C405.219 232.009 412.003 234.885 419.17 235.528C419.765 232.642 421.056 229.943 422.93 227.669C430.93 218.239 434.34 235.929 459.93 223.229C495.39 205.589 508.85 215.709 508.85 215.709C510.03 216.589 509.85 224.708 510.05 226.188C511.05 234.618 511.95 243.008 512.94 251.428C513.54 256.568 514.13 261.669 514.69 266.769C515.173 265.901 515.707 265.062 516.29 264.258C519.52 252.828 525.29 239.329 537.73 245.139C540.249 246.367 542.442 248.172 544.13 250.408C552.38 261.248 546.13 271.718 537.5 279.468C535.337 281.873 532.919 284.035 530.29 285.919C531.71 288.859 537.51 300.529 537.51 300.569C538.11 301.749 558.38 278.808 559.89 276.308C562.146 270.184 563.356 263.724 563.47 257.199C563.8 230.369 552.88 199.138 531.15 183.748C525.76 179.938 527.48 176.268 527.15 171.088C527.127 170.808 527.02 170.542 526.842 170.324C526.665 170.106 526.425 169.947 526.156 169.868C525.886 169.789 525.599 169.794 525.332 169.881C525.065 169.969 524.831 170.135 524.66 170.359C517.85 178.199 500.99 177.419 500.99 177.419C442.47 162.759 422.8 188.779 410.99 193.419C406.171 195.244 400.867 195.332 395.99 193.669C395.703 195.283 394.98 196.788 393.9 198.022C392.819 199.256 391.423 200.171 389.86 200.669L390.16 203.378C390.415 205.451 389.941 207.547 388.82 209.308Z" fill="#4E944F"/>
<path d="M419.21 235.572C412.043 234.928 405.259 232.052 399.814 227.348C394.369 222.644 390.537 216.349 388.86 209.352C388.203 206.668 387.788 203.93 387.62 201.172L388.08 201.122C388.709 201.075 389.328 200.94 389.92 200.722C391.483 200.224 392.879 199.309 393.96 198.075C395.04 196.842 395.763 195.336 396.05 193.722C396.233 192.827 396.27 191.908 396.16 191.002L394.66 177.762C394.66 177.762 405.24 185.632 416.98 181.032C428.72 176.432 448.43 150.412 506.98 165.032C506.98 165.032 520.2 165.812 526.98 157.972C527.151 157.748 527.385 157.582 527.652 157.495C527.919 157.407 528.206 157.403 528.476 157.482C528.745 157.561 528.985 157.72 529.162 157.937C529.34 158.155 529.447 158.422 529.47 158.702C529.82 163.892 531.74 167.562 537.14 171.362C558.87 186.762 569.79 217.982 569.45 244.812C569.35 255.942 565.65 266.932 559.94 276.362C558.43 278.862 538.16 301.802 537.56 300.622C537.56 300.622 531.76 288.912 530.34 285.972L530 285.322L530.65 284.892C533.064 283.253 535.369 281.459 537.55 279.522C546.17 271.772 552.43 261.302 544.18 250.462C542.491 248.226 540.299 246.42 537.78 245.192C525.3 239.382 519.57 252.882 516.34 264.312C515.713 266.496 515.327 268.743 515.19 271.012C515.04 269.612 514.89 268.262 514.74 266.862C514.18 261.762 513.59 256.662 512.99 251.522C511.99 243.102 511.05 234.712 510.1 226.282C509.95 224.842 510.1 216.682 508.9 215.802C508.9 215.802 495.43 205.682 459.98 223.322C434.39 236.022 430.98 218.322 422.98 227.762C421.106 230.037 419.815 232.735 419.22 235.622C419.037 236.549 418.92 237.488 418.87 238.432C418.851 238.554 418.851 238.679 418.87 238.802C418.75 240.872 418.71 242.932 418.66 244.952C418.47 264.442 420.61 284.802 428.26 302.902C437.56 324.842 462.17 346.482 487.76 336.252C495.76 333.042 502.93 327.872 509.49 322.382" stroke="black" stroke-width="5.47" stroke-miterlimit="10"/>
<path d="M436.722 283.106C439.267 282.254 440.495 279.067 439.465 275.988C438.435 272.908 435.536 271.102 432.99 271.954C430.445 272.805 429.217 275.992 430.247 279.072C431.278 282.152 434.177 283.958 436.722 283.106Z" fill="black"/>
<path d="M474.798 281.887C477.343 281.036 478.571 277.849 477.541 274.769C476.51 271.689 473.612 269.883 471.066 270.735C468.521 271.587 467.293 274.774 468.323 277.853C469.353 280.933 472.252 282.739 474.798 281.887Z" fill="black"/>
<path d="M460.24 288.482C460.24 288.482 447.57 295.672 446.8 288.212C446.56 285.912 443.46 263.382 443.46 263.382C443.46 263.382 433.22 252.532 417.53 260.552" stroke="black" stroke-width="5.47" stroke-miterlimit="10"/>
<path d="M457.39 257.069C457.39 257.069 477.85 246.849 491.39 261.579" stroke="black" stroke-width="5.47" stroke-miterlimit="10"/>
<path d="M476.15 338.761L478.5 350.821C471.09 357.651 465.85 367.441 467.38 377.751C468.74 386.891 476.22 395.401 483.89 400.191C496.71 408.191 513.76 407.561 527.56 402.471C541.05 397.471 552.72 387.981 561.18 376.401C565.164 370.803 567.818 364.37 568.94 357.591V357.471" stroke="black" stroke-width="5.47" stroke-miterlimit="10"/>
<path d="M478.5 350.82L483.08 372.6" stroke="black" stroke-width="5.47" stroke-miterlimit="10"/>
<path d="M543.27 295.371L550.19 341.321C550.872 345.819 553.146 349.923 556.598 352.886C560.05 355.85 564.45 357.477 569 357.471C590.537 360.961 611.782 366.055 632.56 372.711C713.73 398.891 763.69 472.011 777.8 553.711C783.67 587.921 784.11 623.801 776.74 657.821C772.55 676.971 766.49 698.481 752.42 712.821C734.15 731.521 706.11 723.821 684.52 715.371C617.49 689.301 561.74 642.921 513.6 589.821C487.86 561.421 454.6 538.661 454.6 538.661" stroke="black" stroke-width="5.47" stroke-miterlimit="10"/>
<path d="M194.3 668.352C186.78 668.282 180.23 662.212 178.54 653.762C175.2 637.142 174.32 611.442 198.69 605.832C229.14 598.832 252.56 631.992 264.04 652.952C267.9 659.952 263.53 668.952 256.34 668.952L194.3 668.352Z" fill="#D7E8F0"/>
<path d="M204.353 591.72C210.817 587.418 210.917 576.204 204.574 566.673C198.232 557.141 187.85 552.901 181.385 557.203C174.92 561.505 174.821 572.719 181.163 582.25C187.506 591.782 197.888 596.022 204.353 591.72Z" fill="#D7E8F0"/>
<path d="M704.77 740.938C704.3 741.008 703.77 741.078 703.31 741.188H703.13L632 740.818L525.27 740.268C524.86 740.268 524.46 740.268 524.06 740.268C523.267 740.249 522.476 740.189 521.69 740.088C528.921 739.248 535.624 735.884 540.62 730.589C545.615 725.294 548.583 718.406 549 711.138C549.02 710.762 549.02 710.385 549 710.008V709.428C548.971 702.317 546.493 695.433 541.983 689.934C537.474 684.436 531.208 680.658 524.24 679.238C523.51 679.058 522.71 678.948 521.94 678.838C523.15 678.728 524.35 678.648 525.52 678.648L615.69 679.128L632.29 679.198L654.68 679.308C662.346 680.008 669.476 683.542 674.675 689.22C679.873 694.897 682.767 702.31 682.79 710.008C682.791 711.461 682.681 712.912 682.46 714.348C681.394 721.677 677.733 728.38 672.143 733.237C666.553 738.095 659.406 740.785 652 740.818H706.18C703.06 740.818 703.93 740.818 704.77 740.938Z" fill="white"/>
<path d="M560.49 778.132C562.522 780.175 564.939 781.795 567.601 782.897C570.264 783.999 573.119 784.561 576 784.552H523.62C513.62 784.552 508.16 782.112 504.18 778.132C500.09 774.024 497.787 768.468 497.77 762.672C497.77 750.672 507.61 740.832 523.62 740.832H576C571.676 740.825 567.447 742.102 563.849 744.502C560.251 746.901 557.446 750.314 555.791 754.309C554.135 758.304 553.702 762.701 554.548 766.942C555.393 771.183 557.479 775.077 560.54 778.132H560.49Z" fill="#D7E8F0"/>
<path d="M733.48 710.558C733.467 715.177 732.392 719.731 730.34 723.868C728.874 726.996 726.863 729.837 724.4 732.258C720.339 736.282 715.239 739.097 709.67 740.388C707.374 740.918 705.026 741.187 702.67 741.188C703.15 741.078 703.67 741.008 704.13 740.938C703.29 740.858 702.42 740.828 705.55 740.828H651.36C658.771 740.8 665.925 738.11 671.519 733.25C677.113 728.39 680.776 721.682 681.84 714.348C682.061 712.912 682.171 711.461 682.17 710.008C682.147 702.309 679.252 694.895 674.051 689.217C668.85 683.539 661.718 680.006 654.05 679.308L683.3 679.458L702.84 679.568C711.006 679.637 718.812 682.935 724.553 688.742C730.295 694.549 733.504 702.392 733.48 710.558Z" fill="#4E944F"/>
<path d="M733.48 710.55C733.419 718.721 730.123 726.534 724.312 732.279C718.502 738.024 710.651 741.232 702.48 741.2L524.56 740.28C523.37 740.28 522.18 740.19 520.98 740.07C528.48 739.22 535.407 735.649 540.45 730.032C545.492 724.416 548.299 717.145 548.339 709.597C548.378 702.05 545.647 694.75 540.664 689.081C535.68 683.412 528.791 679.768 521.3 678.84C522.489 678.715 523.684 678.655 524.88 678.66L702.8 679.58C710.97 679.636 718.785 682.926 724.535 688.73C730.285 694.534 733.501 702.38 733.48 710.55Z" stroke="black" stroke-width="5.47" stroke-linecap="square" stroke-linejoin="round"/>
<path d="M682.15 709.999C682.134 718.168 678.882 725.998 673.105 731.774C667.329 737.551 659.499 740.803 651.33 740.819H524.74C523.544 740.812 522.349 740.745 521.16 740.619C528.654 739.729 535.562 736.121 540.575 730.479C545.587 724.836 548.355 717.551 548.355 710.004C548.355 702.457 545.587 695.172 540.575 689.529C535.562 683.887 528.654 680.279 521.16 679.389C522.35 679.279 523.55 679.199 524.74 679.199H651.33C659.495 679.217 667.32 682.468 673.096 688.239C678.871 694.011 682.126 701.834 682.15 709.999Z" stroke="black" stroke-width="5.47" stroke-linecap="square" stroke-linejoin="round"/>
<path d="M497.77 762.678C497.769 765.546 498.334 768.386 499.432 771.036C500.531 773.685 502.14 776.092 504.17 778.118C508.17 782.118 513.6 784.548 523.61 784.548H705.54C702.41 784.548 703.26 784.488 704.11 784.408C698.787 783.782 693.879 781.223 690.317 777.217C686.755 773.212 684.788 768.038 684.788 762.678C684.788 757.318 686.755 752.145 690.317 748.139C693.879 744.134 698.787 741.575 704.11 740.948C703.26 740.868 702.41 740.808 705.54 740.808H523.61C507.59 740.818 497.77 750.658 497.77 762.678Z" stroke="black" stroke-width="5.47" stroke-linecap="square" stroke-linejoin="round"/>
<path d="M554.07 762.678C554.083 768.475 556.392 774.03 560.49 778.128C564.589 782.227 570.144 784.535 575.94 784.548H701.57C702.41 784.548 703.26 784.488 704.11 784.408C698.787 783.782 693.879 781.223 690.317 777.217C686.755 773.212 684.788 768.038 684.788 762.678C684.788 757.318 686.755 752.145 690.317 748.139C693.879 744.134 698.787 741.575 704.11 740.948C703.26 740.868 702.41 740.808 701.57 740.808H575.94C570.145 740.824 564.591 743.133 560.493 747.231C556.395 751.329 554.086 756.883 554.07 762.678Z" stroke="black" stroke-width="5.47" stroke-linecap="square" stroke-linejoin="round"/>
<path d="M350.42 595.82H294.3C291.732 595.816 289.221 595.064 287.073 593.658C284.925 592.252 283.232 590.252 282.2 587.9C281.802 587.025 281.631 586.063 281.705 585.104C281.778 584.145 282.093 583.221 282.62 582.416C283.147 581.612 283.869 580.954 284.719 580.503C285.569 580.053 286.518 579.825 287.48 579.84H347.14C344.33 584.57 345.76 591.14 350.42 595.82Z" fill="#D7E8F0"/>
<path d="M386.71 590.038C386.707 591.568 386.099 593.034 385.017 594.115C383.936 595.197 382.47 595.806 380.94 595.808H350.42C345.76 591.138 344.33 584.568 347.14 579.808H374.09C376.655 579.809 379.164 580.554 381.314 581.952C383.463 583.351 385.161 585.344 386.2 587.688C386.523 588.431 386.696 589.229 386.71 590.038Z" fill="#4E944F"/>
<path d="M372.67 595.819C372.512 596.124 372.328 596.415 372.12 596.689C368.12 602.159 359.43 602.689 352.68 597.749C351.882 597.16 351.127 596.515 350.42 595.819C345.76 591.149 344.33 584.579 347.14 579.819C347.298 579.514 347.482 579.223 347.69 578.949C351.69 573.439 360.34 572.949 367.09 577.849C367.903 578.457 368.668 579.126 369.38 579.849C374 584.499 375.44 591.029 372.67 595.819Z" fill="white"/>
<path d="M400.82 625.271C400.809 626.802 400.194 628.267 399.107 629.346C398.021 630.425 396.551 631.031 395.02 631.031H336.13C338.97 626.251 337.55 619.731 332.88 615.031H388.2C390.769 615.032 393.281 615.78 395.432 617.184C397.582 618.589 399.277 620.589 400.31 622.941C400.64 623.674 400.813 624.467 400.82 625.271Z" fill="#4E944F"/>
<path d="M336.13 631.028H308.42C305.855 631.03 303.344 630.286 301.194 628.887C299.044 627.488 297.347 625.494 296.31 623.148C295.983 622.414 295.81 621.622 295.8 620.818C295.799 620.062 295.947 619.312 296.236 618.612C296.525 617.913 296.949 617.278 297.484 616.742C298.019 616.207 298.655 615.783 299.354 615.494C300.054 615.205 300.803 615.057 301.56 615.058H332.88C337.55 619.728 339 626.248 336.13 631.028Z" fill="#D7E8F0"/>
<path d="M336.13 631.029C336 631.343 335.828 631.639 335.62 631.909C331.62 637.409 322.96 637.909 316.22 632.999C315.404 632.391 314.636 631.722 313.92 630.999C309.29 626.329 307.87 619.809 310.64 614.999C310.8 614.691 310.984 614.397 311.19 614.119C315.19 608.649 323.88 608.119 330.62 613.069C331.423 613.652 332.178 614.297 332.88 614.999C337.55 619.729 339 626.249 336.13 631.029Z" fill="white"/>
<path d="M355.75 666.001H320.49C317.926 665.998 315.418 665.252 313.269 663.854C311.119 662.455 309.421 660.464 308.38 658.121C307.983 657.243 307.814 656.279 307.888 655.319C307.963 654.358 308.278 653.432 308.805 652.625C309.333 651.819 310.055 651.158 310.905 650.705C311.756 650.251 312.706 650.02 313.67 650.031H352.47C349.69 654.821 351.12 661.331 355.75 666.001Z" fill="#4E944F"/>
<path d="M412.89 660.28C412.882 661.801 412.271 663.258 411.192 664.33C410.112 665.402 408.651 666.002 407.13 666H355.75C351.12 661.33 349.69 654.81 352.47 650H400.27C402.838 650 405.351 650.749 407.502 652.153C409.652 653.558 411.347 655.558 412.38 657.91C412.709 658.657 412.883 659.463 412.89 660.28Z" fill="#D7E8F0"/>
<path d="M378 666.001C377.84 666.308 377.656 666.602 377.45 666.881C373.45 672.381 364.8 672.881 358.05 667.971C357.239 667.36 356.474 666.692 355.76 665.971C351.13 661.301 349.7 654.781 352.48 649.971C352.633 649.662 352.813 649.367 353.02 649.091C357.02 643.621 365.71 643.151 372.46 648.041C373.262 648.624 374.018 649.269 374.72 649.971C379.38 654.701 380.8 661.261 378 666.001Z" fill="white"/>
<path d="M111.61 347.191L112.49 347.441L112.16 348.721C111.951 348.221 111.767 347.71 111.61 347.191Z" fill="#353642"/>
<path d="M268.106 427.195C281.27 423.331 288.186 407.409 283.555 391.633C278.924 375.858 264.499 366.201 251.336 370.065C238.172 373.93 231.256 389.851 235.887 405.627C240.518 421.403 254.943 431.059 268.106 427.195Z" fill="#D7E8F0"/>
</svg>
