<?xml version="1.0" encoding="UTF-8"?>
<svg viewBox="0 0 666.49701 658.68011" xmlns="http://www.w3.org/2000/svg">
 <g transform="matrix(9.4316 0 0 9.4316 -10174 -2918.9)" stroke="#000">
  <path transform="matrix(1,0,.25882,.96593,0,0)" d="m986.49 358.1h57.867v34.085h-57.867z" fill="#fff" stroke-width="1.0175"/>
  <g transform="matrix(.83697 0 0 .83697 169.5 104.52)">
   <path d="m1092.1 285.67h69.088v39.088h-69.088z" fill="#fff"/>
   <g transform="translate(1.5714 -3.9611)" fill="none">
    <path d="m1101.1 323.89v-29.442" stroke-width="2.724"/>
    <path d="m1107.1 323.89v-24.136" stroke-width="2.724"/>
    <path d="m1113.1 323.89v-26.899" stroke-width="2.724"/>
    <path d="m1119.1 323.89v-19.271" stroke-width="2.724"/>
    <path d="m1125.1 323.89v-25.743" stroke-width="2.724"/>
    <path d="m1131.1 323.89v-27.593" stroke-width="2.724"/>
    <path d="m1137.1 323.89v-29.442" stroke-width="2.7238"/>
    <path d="m1143.1 323.89v-23.894" stroke-width="2.724"/>
    <path d="m1149.1 323.89v-12.568" stroke-width="2.724"/>
   </g>
  </g>
  <g transform="matrix(.82425 .14534 -.14534 .82425 228.18 -60.111)">
   <path d="m1092.1 285.67h69.088v39.088h-69.088z" fill="#fff"/>
   <g transform="translate(1.5714 -3.9611)" fill="none">
    <path d="m1101.1 323.89v-29.442" stroke-width="2.724"/>
    <path d="m1107.1 323.89v-24.136" stroke-width="2.724"/>
    <path d="m1113.1 323.89v-26.899" stroke-width="2.724"/>
    <path d="m1119.1 323.89v-19.271" stroke-width="2.724"/>
    <path d="m1125.1 323.89v-25.743" stroke-width="2.724"/>
    <path d="m1131.1 323.89v-27.593" stroke-width="2.724"/>
    <path d="m1137.1 323.89v-29.442" stroke-width="2.7238"/>
    <path d="m1143.1 323.89v-23.894" stroke-width="2.724"/>
    <path d="m1149.1 323.89v-12.568" stroke-width="2.724"/>
   </g>
  </g>
  <g transform="matrix(.41848 .72484 -.72484 .41848 866.44 -601.24)">
   <path d="m1092.1 285.67h69.088v39.088h-69.088z" fill="#fff"/>
   <g transform="translate(1.5714 -3.9611)" fill="none">
    <path d="m1101.1 323.89v-29.442" stroke-width="2.724"/>
    <path d="m1107.1 323.89v-24.136" stroke-width="2.724"/>
    <path d="m1113.1 323.89v-26.899" stroke-width="2.724"/>
    <path d="m1119.1 323.89v-19.271" stroke-width="2.724"/>
    <path d="m1125.1 323.89v-25.743" stroke-width="2.724"/>
    <path d="m1131.1 323.89v-27.593" stroke-width="2.724"/>
    <path d="m1137.1 323.89v-29.442" stroke-width="2.7238"/>
    <path d="m1143.1 323.89v-23.894" stroke-width="2.724"/>
    <path d="m1149.1 323.89v-12.568" stroke-width="2.724"/>
   </g>
  </g>
  <path d="m1093.2 342.12c-1.1055 0-2.0733 0.88997-2.17 1.9955l-0.2328 2.6606c-0.014 0.15729-0.01 0.31067 0.012 0.45729l-2.7632 31.584h57.868l2.8805-32.925h-32.977l0.1556-1.7772c0.097-1.1055-0.7154-1.9955-1.8209-1.9955h-20.952z" fill="#fff"/>
 </g>
</svg>
