<?xml version="1.0" standalone="no"?>
<!DOCTYPE svg PUBLIC "-//W3C//DTD SVG 20010904//EN"
 "http://www.w3.org/TR/2001/REC-SVG-20010904/DTD/svg10.dtd">
<svg version="1.0" xmlns="http://www.w3.org/2000/svg"
 width="236.000000pt" height="312.000000pt" viewBox="0 0 236.000000 312.000000"
 preserveAspectRatio="xMidYMid meet">

<g transform="translate(0.000000,312.000000) scale(0.100000,-0.100000)"
fill="#000000" stroke="none">
<path d="M167 2938 c-15 -34 -24 -64 -21 -67 3 -3 10 2 15 12 12 21 65 23 73
2 3 -8 10 -15 15 -15 9 0 -32 106 -48 122 -3 4 -19 -20 -34 -54z m43 -4 c0 -8
-6 -14 -14 -14 -9 0 -12 7 -9 20 6 22 23 18 23 -6z"/>
<path d="M270 2935 c0 -37 4 -65 10 -65 6 0 10 14 10 30 0 23 4 30 20 30 11 0
20 5 20 10 0 6 -9 10 -20 10 -11 0 -20 7 -20 15 0 8 9 15 20 15 11 0 20 5 20
10 0 6 -13 10 -30 10 l-30 0 0 -65z"/>
<path d="M350 2935 l0 -65 38 1 c30 2 32 3 10 6 -22 3 -28 10 -28 29 0 19 5
24 25 24 14 0 25 5 25 10 0 6 -11 10 -25 10 -16 0 -25 6 -25 15 0 9 9 15 25
15 14 0 25 5 25 10 0 6 -16 10 -35 10 l-35 0 0 -65z"/>
<path d="M490 2934 l0 -65 33 3 c31 3 32 5 32 48 0 59 -10 80 -40 80 -24 0
-25 -3 -25 -66z m47 29 c2 -6 -3 -13 -12 -16 -10 -5 -15 0 -15 14 0 21 21 22
27 2z m2 -46 c8 -10 7 -17 -1 -25 -19 -19 -28 -14 -28 13 0 27 12 32 29 12z"/>
<path d="M596 2939 c-15 -33 -25 -64 -21 -67 4 -4 11 1 16 11 13 22 69 24 69
2 0 -8 7 -15 15 -15 12 0 8 14 -16 63 -17 34 -32 63 -34 65 -1 1 -14 -25 -29
-59z m44 -11 c0 -5 -7 -8 -15 -8 -17 0 -18 2 -9 25 5 13 8 14 15 3 5 -7 9 -16
9 -20z"/>
<path d="M700 2934 l0 -65 33 3 c27 2 33 8 35 31 2 15 -1 27 -6 27 -5 0 -7 12
-4 26 5 28 -10 44 -40 44 -15 0 -18 -10 -18 -66z m40 32 c0 -8 -4 -18 -10 -21
-5 -3 -10 3 -10 14 0 12 5 21 10 21 6 0 10 -6 10 -14z m5 -61 c0 -10 -6 -20
-12 -22 -8 -3 -13 5 -13 22 0 17 5 25 13 23 6 -3 12 -13 12 -23z"/>
<path d="M803 2940 c-29 -64 -34 -92 -9 -57 17 22 62 22 75 0 5 -10 12 -15 16
-12 3 4 -7 35 -22 70 l-29 64 -31 -65z m47 -12 c0 -5 -7 -8 -15 -8 -17 0 -18
2 -9 25 5 13 8 14 15 3 5 -7 9 -16 9 -20z"/>
<path d="M912 2938 l-2 -68 28 1 c23 0 24 1 7 8 -16 6 -21 20 -26 67 l-6 59
-1 -67z"/>
<path d="M977 2982 c-17 -19 -22 -68 -9 -88 37 -55 122 -24 122 45 0 51 -79
81 -113 43z m81 -14 c28 -28 2 -88 -38 -88 -30 0 -53 42 -41 74 8 20 17 26 39
26 15 0 33 -5 40 -12z"/>
<path d="M1108 2994 c-5 -4 -8 -34 -8 -66 l0 -58 40 0 c27 0 43 5 46 15 8 21
61 19 73 -2 5 -10 12 -15 15 -12 4 3 -7 35 -23 70 l-29 64 -27 -63 c-23 -51
-32 -62 -49 -60 -18 3 -22 12 -26 61 -3 33 -8 55 -12 51z m132 -66 c0 -5 -7
-8 -15 -8 -17 0 -18 2 -9 25 5 13 8 14 15 3 5 -7 9 -16 9 -20z"/>
<path d="M1340 2950 c0 -49 23 -90 50 -90 27 0 50 41 50 90 0 28 -4 50 -10 50
-5 0 -10 -21 -10 -47 0 -60 -13 -82 -37 -67 -13 8 -19 26 -21 63 -4 66 -22 67
-22 1z"/>
<path d="M1460 2938 c0 -39 4 -68 10 -68 6 0 10 19 10 42 l0 42 45 -44 45 -44
0 67 c0 38 -4 67 -10 67 -5 0 -10 -21 -10 -47 l0 -47 -45 49 -44 50 -1 -67z"/>
<path d="M1590 2935 c0 -37 4 -65 10 -65 6 0 10 28 10 65 0 37 -4 65 -10 65
-6 0 -10 -28 -10 -65z"/>
<path d="M1621 2993 c0 -5 13 -35 28 -68 l28 -60 20 47 c29 65 36 88 25 88 -5
0 -17 -21 -27 -47 l-19 -48 -19 48 c-11 26 -23 47 -28 47 -5 0 -9 -3 -8 -7z"/>
<path d="M1740 2935 l0 -65 38 1 c30 2 32 3 10 6 -22 3 -28 10 -28 29 0 19 5
24 25 24 14 0 25 5 25 10 0 6 -11 10 -25 10 -16 0 -25 6 -25 15 0 9 9 15 25
15 14 0 25 5 25 10 0 6 -16 10 -35 10 l-35 0 0 -65z"/>
<path d="M1830 2935 c0 -37 4 -65 10 -65 6 0 10 12 10 28 l1 27 20 -27 c26
-35 45 -37 23 -3 -15 24 -15 27 0 44 9 9 16 20 16 24 0 14 -34 37 -56 37 -23
0 -24 -3 -24 -65z m56 34 c3 -6 0 -15 -7 -20 -22 -14 -29 -11 -29 11 0 21 24
27 36 9z"/>
<path d="M1927 2993 c-15 -15 -5 -39 25 -65 27 -22 31 -29 20 -40 -10 -10 -16
-10 -32 0 -16 10 -20 10 -20 -2 0 -8 10 -18 22 -22 16 -5 27 -1 40 16 21 25
11 55 -22 65 -29 9 -25 35 6 35 14 0 23 4 19 10 -7 11 -48 14 -58 3z"/>
<path d="M2010 2935 c0 -37 4 -65 10 -65 6 0 10 28 10 65 0 37 -4 65 -10 65
-6 0 -10 -28 -10 -65z"/>
<path d="M2040 2990 c0 -5 7 -10 15 -10 12 0 15 -13 15 -55 0 -30 5 -55 10
-55 6 0 10 24 10 54 0 39 4 55 15 60 20 7 55 -48 55 -86 0 -16 5 -28 10 -28 6
0 10 15 10 33 1 17 7 43 15 57 22 38 17 48 -8 17 l-23 -28 -14 26 c-11 21 -20
25 -62 25 -26 0 -48 -4 -48 -10z"/>
<path d="M227 2812 c-16 -17 -17 -87 -17 -803 0 -959 2 -984 100 -1184 120
-247 361 -446 625 -517 119 -31 364 -32 488 0 179 45 333 137 470 282 132 140
208 285 243 467 19 101 21 1742 2 1761 -9 9 -235 12 -953 12 -900 0 -943 -1
-958 -18z m1018 -210 c2 -2 36 13 76 33 l72 37 -30 -39 c-17 -21 -40 -47 -52
-57 -12 -11 -21 -22 -21 -26 0 -4 32 -20 70 -35 39 -15 70 -30 70 -33 0 -3
-36 -2 -80 1 -79 5 -81 5 -74 -16 15 -48 33 -121 30 -124 -2 -2 -22 21 -45 52
-23 30 -45 55 -50 55 -4 0 -27 -27 -51 -60 -24 -33 -45 -59 -46 -57 -2 2 5 32
16 68 11 35 20 69 20 74 0 6 -32 9 -82 7 l-83 -2 75 31 c41 17 76 32 77 33 1
1 -23 30 -54 65 l-56 63 73 -37 c82 -41 84 -40 95 34 12 88 18 90 33 11 7 -41
15 -76 17 -78z m-365 -577 l0 -275 -313 2 -312 3 -3 260 c-1 143 0 265 3 272
3 10 74 13 315 13 l310 0 0 -275z m1238 3 l-3 -273 -302 -3 -303 -2 0 275 0
275 305 0 305 0 -2 -272z m-980 -293 c20 -9 47 -26 59 -37 13 -12 23 -16 23
-10 0 7 15 21 33 32 17 11 27 20 21 20 -6 0 -23 -9 -37 -20 l-26 -20 -36 24
-36 25 163 0 c205 0 281 -11 297 -45 9 -20 18 -24 56 -24 l45 0 0 -264 c0
-244 -1 -265 -17 -269 -14 -4 -12 -5 5 -6 12 0 22 4 22 9 0 6 72 10 196 10
l196 0 -7 -57 c-28 -227 -165 -450 -370 -601 -59 -43 -184 -112 -205 -112 -7
0 -10 127 -10 380 l0 379 58 3 c31 2 -130 3 -358 3 -228 0 -396 -1 -372 -3
l42 -3 0 -385 c0 -272 -3 -384 -11 -384 -6 0 -48 18 -93 40 -154 75 -304 216
-396 370 -47 79 -98 226 -106 309 l-7 61 222 0 c141 0 221 -4 221 -10 0 -5 10
-9 23 -9 16 1 18 2 5 6 -17 4 -18 25 -18 264 l0 259 38 0 c29 0 42 6 62 30 19
24 37 33 75 39 86 15 202 12 243 -4z"/>
<path d="M960 1535 c-7 -20 -9 -39 -6 -42 3 -4 6 1 6 10 0 24 17 21 23 -3 4
-16 0 -20 -19 -20 -13 0 -24 -4 -24 -8 0 -4 12 -8 28 -7 20 0 27 -5 26 -17 -1
-11 5 -18 16 -18 16 0 15 6 -7 67 -13 37 -26 69 -28 71 -2 2 -8 -13 -15 -33z"/>
<path d="M1055 1498 c0 -39 4 -68 10 -68 6 0 10 14 10 32 0 17 6 33 12 35 19
7 28 -27 14 -49 -10 -16 -10 -19 0 -16 23 8 35 36 22 56 -7 12 -8 24 -1 36 13
24 -8 47 -41 44 -25 -2 -26 -4 -26 -70z m45 31 c0 -10 -4 -19 -10 -19 -5 0
-10 12 -10 26 0 14 4 23 10 19 6 -3 10 -15 10 -26z"/>
<path d="M1155 1552 c3 -7 5 -36 5 -63 0 -42 3 -51 23 -58 24 -9 57 3 57 21 0
7 -5 6 -15 -2 -8 -7 -22 -9 -31 -6 -12 5 -15 18 -12 64 3 50 1 58 -15 58 -11
0 -15 -6 -12 -14z"/>
<path d="M1237 1533 c8 -52 13 -54 13 -5 0 23 -4 42 -9 42 -6 0 -7 -17 -4 -37z"/>
<path d="M1317 1563 c-2 -5 -7 -21 -10 -38 -4 -16 -4 -24 -1 -17 7 16 24 6 24
-15 0 -10 -6 -14 -18 -11 -14 4 -22 -3 -29 -23 -6 -16 -8 -29 -3 -29 4 0 10 9
13 20 9 35 54 24 48 -12 0 -5 9 -8 20 -8 16 0 19 3 11 13 -5 6 -18 38 -27 70
-16 57 -20 64 -28 50z"/>
<path d="M1398 1500 l4 -70 32 0 c43 0 70 30 70 77 0 43 -23 63 -73 63 l-36 0
3 -70z m62 50 c42 -23 31 -110 -15 -110 -24 0 -25 3 -25 53 0 67 6 75 40 57z"/>
<path d="M925 1440 c-3 -5 1 -10 10 -10 9 0 13 5 10 10 -3 6 -8 10 -10 10 -2
0 -7 -4 -10 -10z"/>
<path d="M998 1163 c12 -2 32 -2 45 0 12 2 2 4 -23 4 -25 0 -35 -2 -22 -4z"/>
<path d="M1383 1163 c15 -2 37 -2 50 0 12 2 0 4 -28 4 -27 0 -38 -2 -22 -4z"/>
<path d="M304 721 c6 -10 -51 -57 -84 -69 -20 -7 -20 -9 10 -49 20 -27 36 -40
45 -36 8 3 15 9 15 14 0 4 -6 6 -14 3 -12 -5 -44 33 -34 40 2 1 19 15 39 29
20 15 43 27 53 27 15 0 15 2 0 25 -15 22 -43 38 -30 16z"/>
<path d="M2050 665 c-7 -8 -10 -22 -6 -30 6 -17 32 -20 41 -5 9 15 25 12 25
-5 0 -8 -7 -15 -16 -15 -8 0 -12 -5 -9 -10 9 -15 35 8 35 31 0 24 -18 33 -36
18 -19 -16 -30 -4 -14 16 7 8 8 15 2 15 -5 0 -15 -7 -22 -15z"/>
<path d="M2020 560 c23 -45 31 -50 27 -17 -1 15 3 22 15 22 26 0 23 19 -4 27
-56 15 -60 12 -38 -32z m20 10 c0 -5 -2 -10 -4 -10 -3 0 -8 5 -11 10 -3 6 -1
10 4 10 6 0 11 -4 11 -10z"/>
<path d="M312 563 c-42 -15 -48 -28 -14 -28 10 0 16 -7 14 -17 -5 -34 16 -26
33 12 10 22 16 42 14 44 -2 2 -23 -3 -47 -11z"/>
<path d="M1938 523 l-37 -38 25 -18 c29 -22 31 -37 4 -37 -11 0 -20 6 -20 14
0 24 -19 29 -46 11 l-25 -16 28 -33 c16 -19 32 -30 37 -25 6 5 1 18 -12 32
-23 25 -28 37 -13 37 5 0 11 -9 14 -20 6 -24 29 -26 63 -4 l25 17 -25 26 c-18
19 -22 30 -16 41 8 12 14 10 38 -13 19 -18 32 -25 36 -18 4 6 -5 22 -21 36
-24 21 -26 26 -13 35 8 5 10 10 5 10 -6 0 -27 -17 -47 -37z"/>
<path d="M363 500 c-28 -35 -28 -37 -2 -50 17 -10 24 -7 45 15 24 26 24 28 8
46 -22 24 -24 24 -51 -11z m47 0 c0 -5 -4 -10 -10 -10 -5 0 -10 5 -10 10 0 6
5 10 10 10 6 0 10 -4 10 -10z m-29 -33 c-13 -13 -26 -3 -16 12 3 6 11 8 17 5
6 -4 6 -10 -1 -17z"/>
<path d="M410 455 c-19 -22 -4 -64 25 -71 48 -12 73 36 37 69 -23 21 -46 22
-62 2z m58 -22 c3 -22 -22 -48 -38 -38 -14 8 -13 38 2 53 16 16 32 10 36 -15z"/>
<path d="M487 385 c-19 -24 -23 -34 -13 -38 7 -3 20 8 30 24 10 16 22 27 27
23 6 -4 2 -14 -10 -25 -23 -22 -26 -35 -11 -44 6 -3 10 3 10 13 0 11 7 22 15
26 21 8 19 33 -3 45 -15 8 -23 3 -45 -24z"/>
<path d="M1797 402 c-30 -33 -15 -72 28 -72 28 0 57 31 46 49 -5 7 -14 10 -20
6 -9 -5 -9 -10 0 -21 18 -21 -18 -31 -39 -10 -13 13 -14 20 -5 34 6 9 16 16
22 15 6 -2 11 2 11 7 0 16 -26 11 -43 -8z"/>
<path d="M616 384 c-21 -21 -20 -41 4 -61 26 -22 26 -53 1 -53 -22 0 -45 25
-36 40 3 5 2 10 -3 10 -23 0 -20 -31 5 -50 32 -25 55 -25 76 -2 23 25 22 31
-10 64 -21 22 -24 31 -15 40 17 17 48 -3 44 -27 -2 -10 1 -14 7 -10 18 10 13
33 -11 49 -28 20 -43 20 -62 0z"/>
<path d="M1735 360 c-4 -6 -29 -22 -56 -35 -54 -28 -54 -28 -39 -56 13 -23 6
-24 -31 -2 -15 9 -31 14 -34 11 -8 -7 26 -78 37 -78 5 0 1 11 -8 25 -19 29
-14 31 27 9 36 -18 45 -14 29 16 -6 11 -8 30 -4 42 l7 22 18 -23 c11 -13 19
-29 19 -37 0 -7 6 -11 14 -8 12 5 11 11 -5 39 -19 32 -19 33 1 38 16 4 24 -1
32 -19 6 -13 16 -24 23 -24 14 0 35 21 35 35 0 5 -4 4 -9 -4 -5 -7 -14 -10
-20 -6 -9 5 -9 11 1 23 11 13 10 15 -4 9 -24 -9 -33 9 -11 22 16 9 16 10 1 11
-9 0 -20 -5 -23 -10z"/>
<path d="M1498 313 c-19 -5 -25 -23 -9 -23 13 0 44 -97 35 -111 -5 -9 1 -10
22 -5 36 9 42 15 27 24 -16 10 -45 92 -39 109 5 13 -4 15 -36 6z"/>
<path d="M687 278 c-2 -13 -7 -30 -11 -39 -5 -11 1 -19 19 -27 15 -7 25 -8 25
-2 0 6 -7 10 -16 10 -9 0 -14 6 -11 13 2 6 11 11 21 9 9 -2 16 2 16 8 0 5 -4
10 -10 10 -5 0 -10 5 -10 11 0 6 9 8 23 4 21 -6 21 -6 3 9 -27 22 -43 20 -49
-6z"/>
<path d="M1345 273 c-64 -13 -68 -15 -57 -22 6 -4 13 -35 14 -70 l3 -62 45 6
c55 8 61 12 53 31 -5 15 -7 15 -15 0 -14 -26 -48 -20 -48 8 0 25 25 43 34 23
2 -7 4 2 4 18 0 17 -2 24 -5 18 -2 -7 -13 -13 -24 -13 -14 0 -19 7 -19 25 0
28 26 34 49 13 10 -11 12 -9 9 6 -3 21 -13 26 -43 19z"/>
<path d="M745 234 c-18 -45 -18 -44 0 -44 8 0 15 8 16 18 0 13 2 13 9 -4 12
-30 34 -43 26 -16 -4 11 -1 30 6 42 11 17 11 22 -2 30 -26 17 -39 11 -55 -26z
m41 -1 c-10 -10 -19 5 -10 18 6 11 8 11 12 0 2 -7 1 -15 -2 -18z"/>
<path d="M830 210 c9 -52 16 -58 35 -34 27 33 36 54 26 54 -5 0 -13 -9 -16
-20 -9 -28 -23 -25 -27 7 -2 14 -8 28 -14 30 -8 3 -9 -8 -4 -37z"/>
<path d="M1433 229 c-18 -5 -33 -14 -33 -19 0 -5 7 -7 15 -4 14 6 19 -11 18
-54 -1 -8 5 -11 14 -8 8 3 17 6 20 6 3 0 1 6 -4 13 -18 22 -22 57 -7 57 8 0
14 5 14 10 0 6 -1 10 -2 9 -2 0 -18 -5 -35 -10z"/>
<path d="M910 200 c0 -16 -3 -35 -6 -44 -4 -10 -1 -16 9 -16 8 0 15 6 14 13
-1 40 4 53 23 53 22 0 27 -25 10 -57 -9 -15 -7 -19 7 -19 13 0 19 9 20 31 3
38 5 41 27 33 13 -5 15 -14 10 -40 -5 -25 -3 -34 7 -34 10 0 14 13 14 40 1 33
-3 41 -20 45 -11 2 -41 8 -67 13 l-48 10 0 -28z"/>
<path d="M1068 160 c7 -71 72 -61 72 12 0 15 -4 28 -10 28 -5 0 -9 -8 -8 -17
3 -37 -2 -53 -17 -53 -10 0 -15 11 -15 35 0 22 -5 35 -13 35 -9 0 -11 -12 -9
-40z"/>
<path d="M1155 155 c0 -48 15 -64 16 -17 0 26 1 26 9 5 12 -29 24 -29 39 0 11
21 11 21 8 -5 -3 -19 0 -28 9 -28 10 0 14 14 14 45 0 51 -13 58 -34 18 l-14
-28 -13 28 c-19 41 -34 33 -34 -18z"/>
</g>
</svg>
