<?xml version="1.0" encoding="UTF-8"?>
<svg enable-background="new 0 0 60 70" viewBox="0 0 60 70" xmlns="http://www.w3.org/2000/svg">
 <path d="m9.575,61.05h36.899v-50.35-.35l-1.6-1.675 .75.85 .825.925h-.049l-2.525-2.85 1,1.075-1-1.075-.875-.975h7.4v3h3.9v57.125h-40.85v-2.975h-3.875v-2.725zm40.825-51.425v54.15h-36.95 36.95v-54.15z" fill="#ccc" fill-rule="evenodd"/>
 <path d="m46.475,10.7v50.35h-36.9-3.925v-57.15h34.5 .199v.225l-.199-.225 .199.225v.1 6.3h6.101l-.05-.075h.05l-.825-.925 .85.825v.35h-6.324l.199-6.475-.2,6.475h6.325zm-.85-1.175-.75-.85 1.6,1.675-.85-.825zm-14.7,14.975h5.351-5.351zm1.7,6c-.133-.009-.25.033-.35.125-.105.093-.164.21-.176.35-.008.133.033.25.125.35 .094.105.211.164.351.175 .897.067 1.538.083 1.925.05h.025c.418.006.943.04 1.574.1 .797.069 1.538.01 2.226-.175 .132-.033.231-.108.3-.225s.086-.243.05-.375c-.032-.132-.108-.231-.225-.3s-.243-.086-.375-.05c-.579.148-1.204.189-1.875.125-.722-.068-1.288-.101-1.7-.1h-.05c-.353.03-.962.013-1.825-.05zm-.525,21.5c-.027-.021-.061-.029-.1-.025s-.072.005-.1.025c-.021.028-.029.062-.025.1v1c-.004.039.004.072.025.101 .027.021.061.028.1.024s.072-.004.1-.024c.021-.028.029-.062.025-.101v-1c.004-.038-.004-.072-.025-.1zm4,0c-.027-.021-.061-.029-.1-.025s-.072.005-.1.025c-.021.028-.029.062-.025.1v1c-.004.039.004.072.025.101 .027.021.061.028.1.024s.072-.004.1-.024c.021-.028.029-.062.025-.101v-1c.004-.038-.004-.072-.025-.1zm-21.225-40.925h3.65-3.65zm-2.475-.425c-.853-.366-1.486-.475-1.9-.325h-.025c-.31.12-.802.211-1.475.275-.132.011-.241.07-.325.175-.092.11-.134.235-.125.375 .012.133.07.241.175.325 .109.092.234.134.375.125 .793-.07 1.368-.178 1.725-.325 .253-.043.645.048 1.175.275 .125.062.25.07.375.025s.22-.146.275-.275 .07-.25.025-.375-.146-.22-.275-.275zm-.975,4c-.38.057-1.072.023-2.075-.1-.13-.018-.247.016-.35.1-.113.091-.179.207-.2.35-.018.13.016.247.1.35 .091.112.208.179.35.2 1.109.141 1.875.174 2.3.1 .389-.033.939-.066 1.65-.1h.025c.75.002 1.4-.048 1.95-.15 .543-.098 1.101-.164 1.675-.2 .613.007 1.28.115 2,.325 .138.044.271.036.4-.025 .116-.067.191-.167.225-.3 .044-.139.036-.272-.025-.4-.067-.116-.167-.191-.3-.225-.855-.25-1.622-.375-2.3-.375h-.025c-.618.032-1.217.099-1.8.2h-.025c-.505.097-1.105.147-1.8.15h-.025c-.744.034-1.318.067-1.725.1h-.025zm-2.875,26.05c-.098.301.244.518 1.025.649l-.05-.024c.457.126 1.141.077 2.05-.15 .131-.032.231-.107.3-.225s.086-.243.05-.375c-.032-.132-.107-.231-.225-.3s-.243-.086-.375-.051c-.691.174-1.208.224-1.55.15l-.05-.025c-.152-.023-.236.01-.25.101-.017-.034-.042-.068-.075-.1-.096-.099-.213-.148-.35-.149s-.253.051-.35.149-.149.213-.15.35zm11.75-15.35c.5-.333.617-.733.35-1.2-.267-.433-.617-.517-1.05-.25-.4.3-.517.7-.35,1.2 .2.533.55.617 1.05.25zm2.4-1.45c-.434-.5-.867-.583-1.3-.25-.467.333-.5.7-.1,1.1 .4.367.833.433 1.3.2 .467-.2.5-.55.1-1.05zm1.9-.05c-.3-.467-.667-.567-1.1-.3-.467.3-.55.633-.25,1 .333.4.717.5 1.15.3 .4-.2.467-.533.2-1zm3-.15c-.267-.467-.633-.55-1.1-.25-.5.333-.6.733-.3,1.2 .333.5.716.583 1.15.25s.517-.733.25-1.2zm-17.6.8h6.325-6.325zm2.7,16.7c.893.068 1.685.068 2.375,0h.025c.657-.03 1.299-.014 1.925.05 .746.107 1.421.107 2.025,0 .586-.065 1.252-.1 2-.1s1.431.017 2.05.05c.642.066 1.283.1 1.925.1h.025c.696.036 1.338-.055 1.925-.274 .437-.146.971-.097 1.6.149 .125.045.25.036.375-.024s.221-.147.275-.275c.044-.126.036-.251-.025-.375-.056-.129-.147-.221-.275-.275-.904-.354-1.67-.404-2.3-.149-.473.177-.989.252-1.55.225h-.025c-.617-.001-1.233-.034-1.85-.1h-.025c-.641-.034-1.349-.05-2.125-.05-.786-.002-1.485.031-2.1.1h-.025c-.522.091-1.105.091-1.75,0h-.025c-.691-.068-1.399-.085-2.125-.05h-.025c-.637.063-1.371.063-2.2,0-.141-.009-.266.032-.375.125s-.164.192-.175.325c-.009.141.033.266.125.375 .085.104.193.162.325.173zm1.675-9.75h4.875-4.875zm10.225-.225h3.65-3.65zm-15.55-22.625h9.475-9.475zm1.925,45.75h3.9-3.9zm6.075-8.225h19.925-19.925z" fill="#fff" fill-rule="evenodd"/>
 <path d="m40.35 3.9 3.525 3.7 2.525 2.85 0.05 0.075h-6.1v-6.875l2.65 2.975 0.875 0.975z" fill="#999" fill-rule="evenodd"/>
 <path d="m36.1,52c.021.028.029.062.025.1v1c.004.039-.004.072-.025.101-.027.021-.061.028-.1.024s-.072-.004-.1-.024c-.021-.028-.029-.062-.025-.101v-1c-.004-.038.004-.071.025-.1 .027-.021.061-.029.1-.025s.072.004.1.025zm-4,0c.021.028.029.062.025.1v1c.004.039-.004.072-.025.101-.027.021-.061.028-.1.024s-.072-.004-.1-.024c-.021-.028-.029-.062-.025-.101v-1c-.004-.038.004-.071.025-.1 .027-.021.061-.029.1-.025s.072.004.1.025zm.525-21.5c.863.063 1.472.08 1.825.05h.05c.412-.001.979.032 1.7.1 .671.064 1.296.023 1.875-.125 .132-.036.257-.019.375.05s.192.168.225.3c.036.132.02.257-.05.375s-.168.192-.3.225c-.688.185-1.429.244-2.226.175-.631-.061-1.156-.094-1.574-.1h-.025c-.387.034-1.027.017-1.925-.05-.14-.011-.257-.069-.351-.175-.092-.101-.133-.217-.125-.35 .012-.14.07-.257.176-.35 .1-.092.217-.134.35-.125zm-24.075,10.2c.001-.138.051-.254.15-.351s.213-.148.35-.149 .254.051.35.149c.033.032.058.066.075.101 .014-.091.098-.124.25-.101l.05.025c.343.073.859.023 1.55-.15 .132-.035.257-.019.375.051s.192.168.225.3c.036.132.02.257-.05.375s-.168.192-.3.225c-.91.228-1.593.276-2.05.15l.05.024c-.781-.131-1.123-.348-1.025-.649zm2.875-26.05h.025c.406-.033.981-.066 1.725-.1h.025c.695-.002 1.295-.053 1.8-.15h.025c.583-.101 1.183-.168 1.8-.2h.025c.678,0 1.444.125 2.3.375 .133.034.233.109.3.225 .061.128.069.261.025.4-.034.133-.109.232-.225.3-.128.061-.262.069-.4.025-.72-.209-1.387-.317-2-.325-.574.036-1.132.102-1.675.2-.55.102-1.2.152-1.95.15h-.025c-.711.034-1.261.067-1.65.1-.424.074-1.191.041-2.3-.1-.143-.021-.259-.087-.35-.2-.085-.103-.118-.22-.1-.35 .021-.143.087-.259.2-.35 .103-.084.22-.118.35-.1 1.003.123 1.695.157 2.075.1zm.975-4c.129.055.221.147.275.275 .045.125.037.25-.025.375s-.146.221-.275.275c-.125.045-.25.036-.375-.025-.53-.227-.922-.318-1.175-.275-.357.147-.932.255-1.725.325-.141.009-.266-.033-.375-.125-.105-.084-.163-.192-.175-.325-.009-.14.033-.265.125-.375 .084-.105.193-.164.325-.175 .673-.064 1.165-.155 1.475-.275h.025c.414-.15 1.047-.041 1.9.325zm15.2,13.05c.267.466.183.867-.25,1.2s-.817.25-1.15-.25c-.3-.467-.2-.867.3-1.2 .467-.3.833-.217 1.1.25zm-3,.15c.267.467.2.8-.2,1-.433.2-.816.1-1.15-.3-.3-.367-.217-.7.25-1 .433-.267.8-.167 1.1.3zm-1.9.05c.4.5.367.85-.1,1.05-.467.233-.9.167-1.3-.2-.4-.4-.367-.767.1-1.1 .433-.333.867-.25 1.3.25zm-2.4,1.45c-.5.367-.85.283-1.05-.25-.167-.5-.05-.9.35-1.2 .433-.267.783-.183 1.05.25 .267.467.15.867-.35,1.2zm-7.6,15.85c-.132-.011-.24-.069-.325-.175s-.134-.234-.125-.375c.011-.133.069-.24.175-.325s.234-.134.375-.125c.83.063 1.563.063 2.2,0h.025c.726-.035 1.434-.019 2.125.05h.025c.645.091 1.228.091 1.75,0h.025c.614-.068 1.314-.102 2.1-.1 .776,0 1.484.016 2.125.05h.025c.617.065 1.233.099 1.85.1h.025c.561.027 1.077-.048 1.55-.225 .629-.255 1.396-.204 2.3.149 .128.055.22.146.275.275 .061.124.069.249.025.375-.054.128-.146.22-.275.275s-.25.069-.375.024c-.629-.246-1.163-.296-1.6-.149-.587.22-1.229.311-1.925.274h-.025c-.642,0-1.283-.033-1.925-.1-.619-.033-1.303-.05-2.05-.05s-1.414.034-2,.1c-.604.107-1.279.107-2.025,0-.626-.063-1.268-.08-1.925-.05h-.025c-.69.071-1.482.071-2.375.002z" fill-rule="evenodd"/>
 <path d="m43,6.625h7.4v3h3.9v57.125h-40.85v-2.975h-3.875v-2.725h-3.925v-57.15h34.5m.2.225-.2-.225m6.325,6.8v-.35l-.85-.825m-5.275-5.3-.2,6.475h6.324v50.35h-36.899m34.3-53.45 1,1.075 1.6,1.675m-6.125-6.45 3.525,3.7m-12.95,16.9h5.351m14.124-14.875v54.15h-36.95m1.425-52.7h3.65m-8.525,13.425h6.325m-1.95,6.95h4.875m5.35-.225h3.65m-19.2-22.625h9.475m-7.55,45.75h3.9m2.175-8.225h19.925" fill="none" stroke="#000" stroke-linecap="round" stroke-linejoin="round" stroke-miterlimit="3"/>
</svg>
