<?xml version='1.0' encoding='utf-8'?>
<svg xmlns:xlink="http://www.w3.org/1999/xlink" xmlns="http://www.w3.org/2000/svg" width="1920" height="1080" viewBox="0 0 507.99999 285.75001" version="1.1" id="svg2719"> <defs id="defs2713"> <linearGradient xlink:href="#linearGradient964" id="linearGradient2495" gradientUnits="userSpaceOnUse" gradientTransform="translate(112.38997,11921.991)" x1="555.625" y1="402.83334" x2="1058.3334" y2="138.25"/> <linearGradient id="linearGradient964"> <stop style="stop-color:#f2f2f2;stop-opacity:1;" offset="0" id="stop960"/> <stop style="stop-color:#f2f2f2;stop-opacity:1" offset="1" id="stop962"/> </linearGradient> <linearGradient xlink:href="#linearGradient964" id="linearGradient3064" gradientUnits="userSpaceOnUse" gradientTransform="translate(746.90432,13972.309)" x1="555.625" y1="402.83334" x2="1058.3334" y2="138.25"/> </defs> <metadata id="metadata2716"> </metadata> <g id="g3118" transform="translate(-1328.9877,-14061.875)"> <rect y="14061.875" x="1328.9877" height="285.75" width="508" id="rect3039" style="color:#000000;clip-rule:nonzero;display:inline;overflow:visible;visibility:visible;opacity:1;isolation:auto;mix-blend-mode:normal;color-interpolation:sRGB;color-interpolation-filters:linearRGB;solid-color:#000000;solid-opacity:1;fill:url(#linearGradient3064);fill-opacity:1;fill-rule:nonzero;stroke:none;stroke-width:0.079375;stroke-linecap:round;stroke-linejoin:round;stroke-miterlimit:4;stroke-dasharray:none;stroke-dashoffset:0;stroke-opacity:1;color-rendering:auto;image-rendering:auto;shape-rendering:auto;text-rendering:auto;enable-background:accumulate"/> <path id="path3041" d="m 1648.4668,14124.117 -130.9589,161.265 62.2422,62.243 h 257.2375 v -114.666 z" style="opacity:0.1;fill:#000000;fill-rule:evenodd;stroke:none;stroke-width:0.26458332px;stroke-linecap:butt;stroke-linejoin:miter;stroke-opacity:1"/> <g id="g3105"> <path style="color:#000000;font-style:normal;font-variant:normal;font-weight:normal;font-stretch:normal;font-size:medium;line-height:normal;font-family:sans-serif;font-variant-ligatures:normal;font-variant-position:normal;font-variant-caps:normal;font-variant-numeric:normal;font-variant-alternates:normal;font-feature-settings:normal;text-indent:0;text-align:start;text-decoration:none;text-decoration-line:none;text-decoration-style:solid;text-decoration-color:#000000;letter-spacing:normal;word-spacing:normal;text-transform:none;writing-mode:lr-tb;direction:ltr;text-orientation:mixed;dominant-baseline:auto;baseline-shift:baseline;text-anchor:start;white-space:normal;shape-padding:0;clip-rule:nonzero;display:inline;overflow:visible;visibility:visible;opacity:1;isolation:auto;mix-blend-mode:normal;color-interpolation:sRGB;color-interpolation-filters:linearRGB;solid-color:#000000;solid-opacity:1;vector-effect:none;fill:#5599ff;fill-opacity:0.87058824;fill-rule:evenodd;stroke:none;stroke-width:4.72787714;stroke-linecap:butt;stroke-linejoin:miter;stroke-miterlimit:4;stroke-dasharray:none;stroke-dashoffset:0;stroke-opacity:1;color-rendering:auto;image-rendering:auto;shape-rendering:auto;text-rendering:auto;enable-background:accumulate" d="m 1517.5078,14124.117 v 2.363 158.903 h 130.959 v -161.266 z" id="path3043"/> <path style="color:#000000;font-style:normal;font-variant:normal;font-weight:normal;font-stretch:normal;font-size:medium;line-height:normal;font-family:sans-serif;font-variant-ligatures:normal;font-variant-position:normal;font-variant-caps:normal;font-variant-numeric:normal;font-variant-alternates:normal;font-feature-settings:normal;text-indent:0;text-align:start;text-decoration:none;text-decoration-line:none;text-decoration-style:solid;text-decoration-color:#000000;letter-spacing:normal;word-spacing:normal;text-transform:none;writing-mode:lr-tb;direction:ltr;text-orientation:mixed;dominant-baseline:auto;baseline-shift:baseline;text-anchor:start;white-space:normal;shape-padding:0;clip-rule:nonzero;display:inline;overflow:visible;visibility:visible;opacity:1;isolation:auto;mix-blend-mode:normal;color-interpolation:sRGB;color-interpolation-filters:linearRGB;solid-color:#000000;solid-opacity:1;vector-effect:none;fill:#ffffff;fill-opacity:1;fill-rule:evenodd;stroke:none;stroke-width:4.72787714;stroke-linecap:butt;stroke-linejoin:miter;stroke-miterlimit:4;stroke-dasharray:none;stroke-dashoffset:0;stroke-opacity:1;color-rendering:auto;image-rendering:auto;shape-rendering:auto;text-rendering:auto;enable-background:accumulate" d="m 1522.2363,14128.846 h 121.502 v 151.808 h -121.502 z" id="path3045"/> <path style="fill:none;fill-rule:evenodd;stroke:#5599ff;stroke-width:8.73901081;stroke-linecap:round;stroke-linejoin:miter;stroke-miterlimit:4;stroke-dasharray:none;stroke-opacity:0.87058824" d="m 1539.2926,14217.698 h 87.3901" id="path3049"/> <path style="fill:none;fill-rule:evenodd;stroke:#5599ff;stroke-width:8.73901081;stroke-linecap:round;stroke-linejoin:miter;stroke-miterlimit:4;stroke-dasharray:none;stroke-opacity:0.87058824" d="m 1539.2926,14237.118 h 87.3901" id="path3051"/> <path style="fill:none;fill-rule:evenodd;stroke:#5599ff;stroke-width:8.73901081;stroke-linecap:round;stroke-linejoin:miter;stroke-miterlimit:4;stroke-dasharray:none;stroke-opacity:0.87058824" d="m 1539.2926,14256.538 h 87.3901" id="path3053"/> <g id="g2985" transform="matrix(0.45192794,0,0,0.45192794,1205.1379,13250.67)"> <path style="color:#000000;font-style:normal;font-variant:normal;font-weight:normal;font-stretch:normal;font-size:medium;line-height:normal;font-family:sans-serif;font-variant-ligatures:normal;font-variant-position:normal;font-variant-caps:normal;font-variant-numeric:normal;font-variant-alternates:normal;font-feature-settings:normal;text-indent:0;text-align:start;text-decoration:none;text-decoration-line:none;text-decoration-style:solid;text-decoration-color:#000000;letter-spacing:normal;word-spacing:normal;text-transform:none;writing-mode:lr-tb;direction:ltr;text-orientation:mixed;dominant-baseline:auto;baseline-shift:baseline;text-anchor:start;white-space:normal;shape-padding:0;clip-rule:nonzero;display:inline;overflow:visible;visibility:visible;opacity:0.95999995;isolation:auto;mix-blend-mode:normal;color-interpolation:sRGB;color-interpolation-filters:linearRGB;solid-color:#000000;solid-opacity:1;vector-effect:none;fill:#ffffff;fill-opacity:1;fill-rule:nonzero;stroke:none;stroke-width:7.9375;stroke-linecap:round;stroke-linejoin:round;stroke-miterlimit:4;stroke-dasharray:none;stroke-dashoffset:0;stroke-opacity:1;color-rendering:auto;image-rendering:auto;shape-rendering:auto;text-rendering:auto;enable-background:accumulate" d="m 777.98222,2024.0786 c 4.7499,-32.1346 34.5546,-54.2629 66.6892,-49.513 32.1345,4.7499 54.2629,34.5547 49.513,66.6892 -4.7499,32.1346 -34.5547,54.2629 -66.6893,49.513 -32.1345,-4.7499 -54.2629,-34.5547 -49.5129,-66.6892 z" id="path2981"/> <path id="path2983" d="m 835.68896,1965.9927 c -32.34635,0.1687 -60.68314,23.9591 -65.55621,56.9268 -5.37721,36.3782 19.82671,70.3226 56.20485,75.6998 34.43412,5.0898 66.6844,-17.22 74.5939,-50.4708 0.018,-0.076 0.037,-0.1509 0.054,-0.2264 0.068,-0.2888 0.134,-0.5782 0.198,-0.8687 0.053,-0.2399 0.1036,-0.4804 0.154,-0.7209 0.069,-0.3301 0.1359,-0.661 0.2,-0.9932 0.049,-0.2531 0.096,-0.5065 0.1421,-0.7601 0.053,-0.2927 0.1042,-0.5859 0.1535,-0.8801 0.051,-0.3034 0.1,-0.6071 0.1467,-0.911 0.019,-0.124 0.041,-0.2468 0.059,-0.3711 0.014,-0.095 0.025,-0.189 0.038,-0.2837 0.054,-0.3748 0.1046,-0.7499 0.1519,-1.1255 0.032,-0.2506 0.061,-0.501 0.089,-0.7514 0.023,-0.1976 0.044,-0.3954 0.065,-0.5932 0.05,-0.4759 0.096,-0.9511 0.1359,-1.4258 0.01,-0.095 0.016,-0.1891 0.024,-0.2837 0.6217,-7.7467 -0.1247,-15.3318 -2.0495,-22.4989 -0.057,-0.2143 -0.1158,-0.4284 -0.1752,-0.6423 -0.055,-0.1957 -0.1089,-0.3915 -0.1654,-0.5865 -0.125,-0.4344 -0.2545,-0.8678 -0.3886,-1.3002 -0.011,-0.037 -0.023,-0.073 -0.035,-0.1101 -0.9761,-3.1293 -2.1878,-6.206 -3.639,-9.203 -5.1571,-10.6506 -12.96543,-19.5633 -22.46431,-26.0367 -0.12642,-0.086 -0.25323,-0.1723 -0.38034,-0.2579 -0.25154,-0.1688 -0.50424,-0.3357 -0.75808,-0.5012 -0.32796,-0.2144 -0.6585,-0.4253 -0.99063,-0.6341 -0.0627,-0.039 -0.12531,-0.079 -0.18812,-0.1178 -5.04415,-3.1476 -10.56473,-5.6489 -16.46409,-7.3737 -0.65117,-0.1904 -1.30607,-0.3729 -1.96631,-0.5442 -0.28162,-0.073 -0.56425,-0.1439 -0.84749,-0.2134 -0.187,-0.046 -0.3747,-0.09 -0.56224,-0.1349 -0.34345,-0.081 -0.68778,-0.1602 -1.03354,-0.2361 -0.3003,-0.066 -0.6011,-0.1307 -0.90278,-0.1928 -0.16666,-0.034 -0.33306,-0.069 -0.50022,-0.1018 -0.4504,-0.089 -0.90223,-0.1732 -1.35546,-0.2532 -0.1192,-0.021 -0.23871,-0.041 -0.35814,-0.062 -0.49335,-0.084 -0.98761,-0.1654 -1.48413,-0.2387 -3.41045,-0.5042 -6.79998,-0.7394 -10.14616,-0.722 z m 0.0274,7.9334 c 1.65926,-0.01 3.33132,0.058 5.01211,0.1933 l -8.56848,57.9685 a 3.9691468,3.9691468 0 0 0 1.94665,4.0189 l 50.8124,29.2406 c -12.21583,18.2575 -34.20919,28.8511 -57.42077,25.4202 -32.13454,-4.7499 -54.26321,-34.5527 -49.51325,-66.6874 4.30461,-29.1219 29.18629,-50.026 57.73134,-50.1541 z" style="color:#000000;font-style:normal;font-variant:normal;font-weight:normal;font-stretch:normal;font-size:medium;line-height:normal;font-family:sans-serif;font-variant-ligatures:normal;font-variant-position:normal;font-variant-caps:normal;font-variant-numeric:normal;font-variant-alternates:normal;font-feature-settings:normal;text-indent:0;text-align:start;text-decoration:none;text-decoration-line:none;text-decoration-style:solid;text-decoration-color:#000000;letter-spacing:normal;word-spacing:normal;text-transform:none;writing-mode:lr-tb;direction:ltr;text-orientation:mixed;dominant-baseline:auto;baseline-shift:baseline;text-anchor:start;white-space:normal;shape-padding:0;clip-rule:nonzero;display:inline;overflow:visible;visibility:visible;opacity:0.95999995;isolation:auto;mix-blend-mode:normal;color-interpolation:sRGB;color-interpolation-filters:linearRGB;solid-color:#000000;solid-opacity:1;vector-effect:none;fill:#5599ff;fill-opacity:1;fill-rule:nonzero;stroke:none;stroke-width:7.9375;stroke-linecap:round;stroke-linejoin:round;stroke-miterlimit:4;stroke-dasharray:none;stroke-dashoffset:0;stroke-opacity:1;color-rendering:auto;image-rendering:auto;shape-rendering:auto;text-rendering:auto;enable-background:accumulate"/> </g> </g> </g> </svg>