<svg width="838" height="903" viewBox="0 0 838 903" fill="none" xmlns="http://www.w3.org/2000/svg">
<path d="M239.85 342.36H166.71C164.674 342.36 162.658 341.958 160.778 341.179C158.897 340.399 157.188 339.256 155.75 337.816C154.311 336.375 153.171 334.665 152.393 332.784C151.616 330.902 151.217 328.885 151.22 326.85V151C151.22 148.966 151.621 146.952 152.399 145.073C153.178 143.195 154.319 141.488 155.758 140.05C157.196 138.612 158.904 137.472 160.783 136.695C162.662 135.918 164.676 135.518 166.71 135.52H287.46C289.498 135.513 291.516 135.909 293.401 136.683C295.285 137.458 296.998 138.597 298.442 140.035C299.885 141.473 301.031 143.182 301.813 145.063C302.595 146.945 302.999 148.962 303 151V198.43" stroke="#CCDDE2" stroke-width="4.5" stroke-miterlimit="10"/>
<path d="M283.79 156.828H171.96C167.68 156.828 164.21 160.298 164.21 164.578V185.458C164.21 189.738 167.68 193.208 171.96 193.208H283.79C288.07 193.208 291.54 189.738 291.54 185.458V164.578C291.54 160.298 288.07 156.828 283.79 156.828Z" stroke="#CCDDE2" stroke-width="4.5" stroke-miterlimit="10"/>
<path d="M227.09 172.149C229.167 172.149 230.85 170.465 230.85 168.389C230.85 166.312 229.167 164.629 227.09 164.629C225.013 164.629 223.33 166.312 223.33 168.389C223.33 170.465 225.013 172.149 227.09 172.149Z" fill="#D7E8F0"/>
<path d="M216.58 185.418C216.492 183.985 216.697 182.549 217.185 181.198C217.673 179.847 218.432 178.61 219.416 177.564C220.399 176.518 221.587 175.684 222.905 175.114C224.223 174.544 225.644 174.25 227.08 174.25C228.516 174.25 229.937 174.544 231.255 175.114C232.573 175.684 233.761 176.518 234.745 177.564C235.728 178.61 236.487 179.847 236.975 181.198C237.463 182.549 237.669 183.985 237.58 185.418H216.58Z" fill="#D7E8F0"/>
<path d="M227.86 232.199C223.851 232.199 219.932 233.388 216.599 235.615C213.265 237.843 210.667 241.008 209.133 244.712C207.599 248.416 207.197 252.492 207.979 256.424C208.762 260.356 210.692 263.967 213.527 266.802C216.362 269.637 219.973 271.568 223.905 272.35C227.837 273.132 231.913 272.73 235.617 271.196C239.321 269.662 242.487 267.064 244.714 263.731C246.941 260.397 248.13 256.478 248.13 252.469C248.131 249.807 247.608 247.171 246.59 244.711C245.571 242.251 244.078 240.016 242.196 238.133C240.313 236.251 238.078 234.758 235.619 233.74C233.159 232.721 230.522 232.198 227.86 232.199ZM227.86 267.839C227.158 267.723 226.521 267.362 226.061 266.82C225.601 266.278 225.348 265.59 225.348 264.879C225.348 264.168 225.601 263.48 226.061 262.938C226.521 262.396 227.158 262.035 227.86 261.919C228.289 261.848 228.729 261.872 229.149 261.988C229.568 262.104 229.957 262.31 230.289 262.592C230.621 262.873 230.888 263.224 231.071 263.619C231.254 264.014 231.348 264.444 231.348 264.879C231.348 265.314 231.254 265.745 231.071 266.14C230.888 266.535 230.621 266.885 230.289 267.167C229.957 267.448 229.568 267.654 229.149 267.77C228.729 267.887 228.289 267.91 227.86 267.839ZM231.61 245.049C231.127 249.532 230.302 253.972 229.14 258.329C229.018 258.562 228.835 258.756 228.61 258.892C228.385 259.028 228.128 259.1 227.865 259.1C227.602 259.1 227.345 259.028 227.12 258.892C226.895 258.756 226.712 258.562 226.59 258.329C225.665 255.117 224.956 251.846 224.47 248.539C224.06 246.139 222.66 242.239 224 239.899C225.18 237.809 228.52 237.559 230.45 238.649C232.82 239.999 231.89 242.859 231.61 245.049Z" fill="#D7E8F0"/>
<path d="M176.94 209.449H275.95" stroke="#CCDDE2" stroke-width="4.5" stroke-miterlimit="10"/>
<path d="M176.94 219.199H275.95" stroke="#CCDDE2" stroke-width="4.5" stroke-miterlimit="10"/>
<path d="M176.94 281.949H275.95" stroke="#CCDDE2" stroke-width="4.5" stroke-miterlimit="10"/>
<path d="M199.94 291.172H252.95" stroke="#CCDDE2" stroke-width="4.5" stroke-miterlimit="10"/>
<path d="M788.61 304.781H636.84C624.204 304.781 613.96 315.025 613.96 327.661V586.871C613.96 599.508 624.204 609.751 636.84 609.751H788.61C801.246 609.751 811.49 599.508 811.49 586.871V327.661C811.49 315.025 801.246 304.781 788.61 304.781Z" fill="#4E944F"/>
<path d="M581.15 304.781H475.47C462.834 304.781 452.59 315.025 452.59 327.661V586.871C452.59 599.508 462.834 609.751 475.47 609.751H581.15C593.786 609.751 604.03 599.508 604.03 586.871V327.661C604.03 315.025 593.786 304.781 581.15 304.781Z" fill="#4E944F"/>
<path d="M461.34 764.831H810.4C816.431 764.828 822.215 762.432 826.48 758.168C830.746 753.904 833.145 748.122 833.15 742.091V308.801C833.151 305.813 832.564 302.854 831.421 300.093C830.278 297.332 828.602 294.824 826.49 292.711C824.377 290.598 821.868 288.923 819.108 287.78C816.347 286.637 813.388 286.049 810.4 286.051H573.18L511.18 286.421H511L479.65 287.641H479.55L471.3 287.961H470.57L469.96 292.871L468.76 302.001C468.773 302.018 468.78 302.039 468.78 302.061C468.78 302.082 468.773 302.103 468.76 302.121L459 316.581L457 319.511L451.49 354.771V354.941C451.37 354.891 451.25 354.821 451.1 354.741C450.98 354.671 450.866 354.591 450.76 354.501C448.906 353.105 447.513 351.186 446.76 348.991C444.93 344.351 444.49 338.201 444.47 333.321L443.27 360.111V360.211L441.6 396.001L441.19 405.611C441.97 404.221 443.09 402.221 444.39 399.831L440.24 426.351L439.38 445.461L437.24 493.751L437.16 495.551V496.241L436.6 508.001V508.271C436.6 508.271 435 542.781 435 542.831L434.85 546.031L433 560.001L427.6 599.091V742.091C427.601 746.165 428.699 750.164 430.779 753.667C432.859 757.17 435.844 760.049 439.42 762.001C446.19 765.671 453.68 765.181 461.12 764.931C463.12 764.871 465.12 764.781 467.12 764.671" fill="#4E944F"/>
<path d="M448.09 757.372C447.95 757.372 447.8 757.242 447.63 757.192C445.729 756.511 443.932 755.568 442.29 754.392C439.409 752.345 437.062 749.636 435.445 746.493C433.829 743.351 432.99 739.866 433 736.332V545.492L427.6 548.082L427.26 548.252L426.53 546.442L422.92 537.442L421.92 534.952L412.79 512.162C412.79 512.162 430.13 442.002 441.6 396.002C445.8 379.112 449.22 365.472 450.66 359.742C451.1 358.032 451.36 357.032 451.41 356.862C451.414 356.822 451.414 356.782 451.41 356.742C451.44 356.401 451.388 356.059 451.26 355.742C451.118 355.373 450.947 355.015 450.75 354.672C450.727 354.601 450.693 354.533 450.65 354.472C449.461 352.449 448.124 350.517 446.65 348.692L444.75 325.162L445.06 324.922L446.5 323.772L456.34 315.972L458.63 309.912L463.12 298.132L465.12 292.882H469.88H471.1H479.71L511.53 292.782H514.26L574.63 292.422H805.62C808.529 292.422 811.409 292.995 814.096 294.109C816.783 295.223 819.224 296.856 821.279 298.914C823.334 300.972 824.964 303.415 826.074 306.104C827.184 308.792 827.754 311.673 827.75 314.582V736.332C827.754 739.241 827.184 742.121 826.074 744.81C824.964 747.498 823.334 749.941 821.279 752C819.224 754.058 816.783 755.69 814.096 756.804C811.409 757.918 808.529 758.492 805.62 758.492H461.76" fill="#4E944F"/>
<path d="M471.2 286.641L479.38 286.591H479.55L510.95 286.421H511.17L573.17 286.051H810.4C816.433 286.053 822.218 288.451 826.484 292.717C830.75 296.983 833.147 302.768 833.15 308.801V742.091C833.145 748.122 830.746 753.904 826.48 758.168C822.215 762.432 816.431 764.828 810.4 764.831H449.73C443.853 764.831 438.216 762.496 434.061 758.34C429.905 754.184 427.57 748.548 427.57 742.671V695.361" stroke="black" stroke-width="4.5" stroke-miterlimit="10"/>
<path d="M788.61 632.148H475.47C462.834 632.148 452.59 642.392 452.59 655.028V718.638C452.59 731.275 462.834 741.518 475.47 741.518H788.61C801.246 741.518 811.49 731.275 811.49 718.638V655.028C811.49 642.392 801.246 632.148 788.61 632.148Z" fill="white"/>
<path d="M685.08 656.512H482.8C478.52 656.512 475.05 659.982 475.05 664.262V710.982C475.05 715.262 478.52 718.732 482.8 718.732H685.08C689.36 718.732 692.83 715.262 692.83 710.982V664.262C692.83 659.982 689.36 656.512 685.08 656.512Z" fill="#4E944F"/>
<path d="M648.79 682.72C652.347 682.72 655.23 679.837 655.23 676.28C655.23 672.723 652.347 669.84 648.79 669.84C645.233 669.84 642.35 672.723 642.35 676.28C642.35 679.837 645.233 682.72 648.79 682.72Z" fill="white"/>
<path d="M630.81 705.398C630.81 700.625 632.706 696.046 636.082 692.67C639.458 689.295 644.036 687.398 648.81 687.398C653.584 687.398 658.162 689.295 661.538 692.67C664.914 696.046 666.81 700.625 666.81 705.398H630.81Z" fill="white"/>
<path d="M747.77 656.52C741.499 656.514 735.366 658.368 730.149 661.848C724.932 665.328 720.864 670.277 718.461 676.07C716.057 681.862 715.426 688.238 716.646 694.389C717.867 700.541 720.885 706.192 725.318 710.628C729.751 715.064 735.4 718.085 741.551 719.309C747.701 720.534 754.077 719.906 759.871 717.506C765.665 715.107 770.617 711.042 774.1 705.827C777.584 700.612 779.442 694.481 779.44 688.21C779.441 684.049 778.623 679.929 777.032 676.085C775.442 672.241 773.109 668.748 770.168 665.805C767.227 662.863 763.736 660.528 759.893 658.935C756.05 657.342 751.93 656.521 747.77 656.52ZM747.77 712.25C747.143 712.279 746.517 712.18 745.929 711.961C745.342 711.741 744.805 711.404 744.351 710.971C743.897 710.538 743.536 710.017 743.289 709.44C743.042 708.863 742.915 708.242 742.915 707.615C742.915 706.987 743.042 706.366 743.289 705.789C743.536 705.212 743.897 704.692 744.351 704.258C744.805 703.825 745.342 703.488 745.929 703.269C746.517 703.049 747.143 702.95 747.77 702.98C748.962 703.035 750.087 703.547 750.911 704.411C751.735 705.274 752.195 706.421 752.195 707.615C752.195 708.808 751.735 709.955 750.911 710.818C750.087 711.682 748.962 712.194 747.77 712.25ZM753.6 676.6C752.6 683.48 751.79 690.7 749.74 697.36C749.28 698.97 746.25 698.97 745.74 697.36C744.287 692.341 743.177 687.229 742.42 682.06C741.78 678.31 739.59 672.21 741.69 668.57C743.54 665.3 748.76 664.91 751.76 666.57C755.5 668.69 754 673.18 753.6 676.6Z" fill="#4E944F"/>
<path d="M781.43 525.24C779.894 538.49 774.409 550.972 765.688 561.065C756.967 571.158 745.413 578.395 732.526 581.838C719.639 585.28 706.015 584.768 693.423 580.368C680.831 575.968 669.853 567.883 661.914 557.164C653.976 546.445 649.444 533.586 648.906 520.258C648.369 506.931 651.852 493.749 658.902 482.426C665.953 471.103 676.245 462.161 688.442 456.762C700.639 451.363 714.178 449.756 727.3 452.15C727.877 452.261 728.425 452.49 728.91 452.821C729.396 453.152 729.808 453.579 730.122 454.075C730.436 454.572 730.645 455.128 730.736 455.708C730.826 456.289 730.797 456.882 730.65 457.45L729.34 462.56L717.6 508.4C717.413 509.131 717.421 509.899 717.624 510.625C717.827 511.352 718.218 512.013 718.757 512.541C719.296 513.068 719.964 513.445 720.695 513.633C721.426 513.821 722.193 513.813 722.92 513.61L768.49 500.87L774.72 499.13C775.275 498.974 775.856 498.931 776.428 499.004C776.999 499.077 777.551 499.264 778.049 499.554C778.547 499.844 778.982 500.231 779.327 500.693C779.673 501.154 779.922 501.681 780.06 502.24C781.854 509.769 782.318 517.553 781.43 525.24Z" fill="white"/>
<path d="M783 478C783.216 478.558 783.311 479.156 783.281 479.755C783.251 480.353 783.096 480.938 782.825 481.473C782.555 482.007 782.175 482.479 781.711 482.857C781.247 483.236 780.708 483.512 780.13 483.67L775.84 484.87L738.73 495.24C738.003 495.442 737.236 495.45 736.505 495.262C735.774 495.074 735.106 494.698 734.567 494.17C734.028 493.642 733.637 492.981 733.434 492.255C733.231 491.528 733.223 490.761 733.41 490.03L743 452.71L743.92 449.13C744.065 448.561 744.325 448.027 744.685 447.563C745.044 447.099 745.496 446.715 746.011 446.433C746.527 446.152 747.094 445.979 747.679 445.927C748.264 445.875 748.853 445.944 749.41 446.13C756.96 448.735 763.864 452.928 769.658 458.425C775.452 463.923 780.001 470.597 783 478Z" fill="white"/>
<path d="M714.44 364.419C724.536 364.419 732.72 356.235 732.72 346.139C732.72 336.044 724.536 327.859 714.44 327.859C704.344 327.859 696.16 336.044 696.16 346.139C696.16 356.235 704.344 364.419 714.44 364.419Z" fill="#D7E8F0"/>
<path d="M781.87 386.539H648.8V390.199H781.87V386.539Z" fill="#D7E8F0"/>
<path d="M781.87 400.078H648.8V403.738H781.87V400.078Z" fill="#D7E8F0"/>
<path d="M781.87 412.422H648.8V416.082H781.87V412.422Z" fill="#D7E8F0"/>
<path d="M580.73 463H476.49V466.66H580.73V463Z" fill="#D7E8F0"/>
<path d="M580.73 477.77H476.49V481.43H580.73V477.77Z" fill="#D7E8F0"/>
<path d="M580.73 492.531H476.49V496.191H580.73V492.531Z" fill="#D7E8F0"/>
<path d="M580.73 507.301H476.49V510.961H580.73V507.301Z" fill="#D7E8F0"/>
<path d="M580.73 522.07H476.49V525.73H580.73V522.07Z" fill="#D7E8F0"/>
<path d="M462.19 359.002C462.19 359.002 493.87 408.892 529.97 424.572C566.07 440.252 577.35 447.182 591.16 441.572C604.97 435.962 631.48 428.102 650.16 372.572C668.84 317.042 677.74 287.812 678.4 274.362C679.06 260.912 641.92 271.962 641.92 271.962C641.92 271.962 621.92 330.912 578.1 357.222L515.69 291.302L462.19 359.002Z" fill="white"/>
<path d="M425.17 435.672L450.67 442.592C450.67 442.592 421.06 483.422 447.39 526.172C473.72 568.922 527.94 655.172 527.94 655.172L631.72 820.172L534.66 806.642L462.19 727.262L425.19 690.372L378.82 545.622L425.17 435.672Z" fill="white"/>
<path d="M8.8101 646.672C11.1029 647.912 13.7569 648.312 16.3133 647.802C18.8697 647.293 21.168 645.906 22.81 643.882L60.55 597.612L91 559.392L66.07 545.392C63.488 543.933 60.432 543.56 57.575 544.353C54.717 545.146 52.291 547.041 50.83 549.622L4.37011 631.222C3.63001 632.524 3.15751 633.96 2.98041 635.447C2.80331 636.934 2.9251 638.442 3.3387 639.881C3.7523 641.32 4.4494 642.663 5.389 643.829C6.3286 644.995 7.4917 645.961 8.8101 646.672Z" fill="#2E2E2E"/>
<path d="M583.27 864.922L614.68 895.822C617.391 898.495 621.043 899.996 624.85 900.002H703.4C705.837 900.012 708.223 899.312 710.269 897.989C712.315 896.665 713.931 894.774 714.92 892.547C715.909 890.321 716.229 887.854 715.84 885.449C715.451 883.044 714.371 880.803 712.73 879.002C710.665 876.692 707.812 875.237 704.73 874.922L661.16 870.452L583.27 864.922Z" fill="#2E2E2E"/>
<path d="M296.43 478.438C296.43 478.438 357.18 495.338 397.68 500.378C438.18 505.418 435.34 488.618 435.34 488.618L440.29 467.398C453.29 446.218 460.84 401.158 460.84 401.158L466.06 365.908L473.68 379.318L498.31 404.128L498.61 404.368C497.86 392.518 498.43 375.868 501.19 353.188C507.55 300.688 528.61 306.778 528.61 306.778L525.52 303.388C510.97 279.178 464.52 253.588 449.68 247.468C434.84 241.348 441.19 250.018 443.08 256.468C444.97 262.918 439.57 281.068 417.94 271.828C396.31 262.588 395.22 242.488 395.22 242.488H385.17C323.52 249.898 292.17 282.778 292.17 282.778C357.66 298.228 342.63 353.778 342.63 353.778L336.69 359.208C313.44 379.368 311.82 398.808 313.83 406.908C315.84 415.008 330.18 425.908 356.07 432.228C381.96 438.548 386.67 438.558 392.52 427.368C398.37 416.178 405.19 414.798 414.52 413.118C423.85 411.438 435.28 418.068 432.67 423.288C430.06 428.508 428.17 423.948 434.67 438.048C441.17 452.148 438.15 459.318 420.67 472.308C403.19 485.298 325.47 478.008 325.47 478.008C288.3 467.728 296.43 478.438 296.43 478.438Z" fill="#2E2E2E"/>
<path d="M438.52 242.821V244.951V245.491C455.896 249.833 472.26 257.516 486.7 268.111C489.04 269.821 491.32 271.561 493.57 273.391C493.63 266.041 493 258.661 490.63 251.701C488.71 245.728 485.093 240.444 480.22 236.491C475.93 233.071 470.86 230.881 465.76 228.901C460.66 226.921 455.65 225.181 450.97 222.511C447.026 220.354 443.581 217.389 440.86 213.811C439.906 212.517 439.311 210.994 439.135 209.396C438.96 207.798 439.21 206.182 439.86 204.711C439.4 204.679 438.947 204.589 438.51 204.441L438.52 242.821Z" fill="#4E944F"/>
<path d="M438.52 242.821V244.951V245.491C455.896 249.833 472.26 257.516 486.7 268.111C489.04 269.821 491.32 271.561 493.57 273.391C493.63 266.041 493 258.661 490.63 251.701C488.71 245.728 485.093 240.444 480.22 236.491C475.93 233.071 470.86 230.881 465.76 228.901C460.66 226.921 455.65 225.181 450.97 222.511C447.026 220.354 443.581 217.389 440.86 213.811C439.906 212.517 439.311 210.994 439.135 209.396C438.96 207.798 439.21 206.182 439.86 204.711C439.4 204.679 438.947 204.589 438.51 204.441L438.52 242.821Z" fill="#4E944F"/>
<path d="M198.45 408.842C204.979 413.514 212.237 417.072 219.93 419.372C223.239 420.392 226.601 421.233 230 421.892C216.57 390.242 226.62 348.602 269 304.202C276.256 296.587 283.982 289.433 292.13 282.782C305.3 272.072 317 264.092 330.8 257.672C336.978 254.821 343.323 252.347 349.8 250.262C361.285 246.439 373.14 243.834 385.17 242.492C387.9 242.162 390.6 241.922 393.33 241.772C392.664 237.083 392.796 232.316 393.72 227.672C396.24 214.922 400.63 207.592 408.61 197.542C413.61 191.212 421.42 176.092 411.01 170.872C404.44 167.602 403.84 160.872 406.93 156.872C409.54 153.392 414.82 151.802 421.33 155.872C425.83 158.752 431.17 158.932 436.33 157.522C440.338 155.187 443.812 152.04 446.53 148.282C454.09 137.452 454.36 121.042 442.53 113.092C436.08 108.742 427.86 107.692 420.15 108.532C416.698 108.911 413.295 109.655 410 110.752C409.986 110.745 409.97 110.742 409.955 110.742C409.939 110.742 409.924 110.745 409.91 110.752C395.91 118.282 385.96 132.202 381.16 147.892C378.34 157.162 375.16 166.342 371.44 175.342C368.38 182.722 366.25 191.692 359.44 196.732C356.594 198.837 353.363 200.366 349.93 201.232C337.06 209.392 319.21 204.682 305.14 202.942C293.891 201.404 282.438 202.555 271.72 206.302C259.72 212.372 249.4 222.062 241.03 234.662C227.2 255.512 241.84 285.572 218.71 302.012C211.71 306.962 203.71 309.962 196.06 313.802C185.14 319.352 176.32 327.242 173.06 339.392C166.62 363.902 178.08 394.052 198.45 408.842Z" fill="#4E944F"/>
<path d="M764 900H216.76" stroke="black" stroke-width="4.5" stroke-miterlimit="10"/>
<path d="M458.59 138.409C459.996 141.323 461.198 144.33 462.19 147.409C463.63 152.409 462.07 155.509 464.26 160.279C465.01 161.929 466.09 164.719 467.26 167.539C467.59 166.879 467.89 166.339 468.07 165.919C476.65 146.809 465.37 137.599 459.94 134.449C459.594 135.803 459.143 137.127 458.59 138.409Z" fill="#4E944F"/>
<path d="M458.59 138.409C459.996 141.323 461.198 144.33 462.19 147.409C463.63 152.409 462.07 155.509 464.26 160.279C465.01 161.929 466.09 164.719 467.26 167.539C467.59 166.879 467.89 166.339 468.07 165.919C476.65 146.809 465.37 137.599 459.94 134.449C459.594 135.803 459.143 137.127 458.59 138.409Z" fill="#4E944F"/>
<path d="M268.47 460.801C263.23 502.121 267.47 573.801 352.09 628.641C367.32 638.511 381.03 652.451 394.46 664.501C431.089 697.602 465.935 732.624 498.85 769.421C519 791.761 539.57 815.241 560 837.861C570.473 849.421 581.06 860.874 591.76 872.221C599.64 880.531 612.14 899.991 624.81 899.991H702.67C709.67 899.991 716.03 894.261 715.93 887.231C715.873 884.193 714.723 881.278 712.69 879.021C710.625 876.711 707.772 875.256 704.69 874.941L661.12 870.471L450.61 535.691C439.75 518.411 430.12 489.971 438.52 471.341C470.52 400.481 467.77 331.801 467.77 331.801" stroke="black" stroke-width="4.5" stroke-miterlimit="10"/>
<path d="M377.46 650.18C368.28 682.43 353.46 715.18 341.22 735.8C336.785 743.328 330.938 749.929 324 755.24C298.92 774.45 263.47 772.4 239.42 751.93L119.81 650.12L60.56 597.61L22.82 643.88C21.036 646.051 18.502 647.474 15.7195 647.868C12.9371 648.262 10.108 647.599 7.79081 646.009C5.47361 644.419 3.83671 642.017 3.20341 639.28C2.57011 636.542 2.98641 633.666 4.37001 631.22L50.84 549.64C52.301 547.059 54.727 545.164 57.585 544.371C60.442 543.578 63.498 543.951 66.08 545.41L91.01 559.41L233.85 639.41C236.226 640.739 238.884 641.486 241.605 641.588C244.327 641.69 247.033 641.145 249.502 639.996C251.971 638.848 254.133 637.13 255.808 634.984C257.484 632.837 258.626 630.324 259.14 627.65L276.06 538.93" stroke="black" stroke-width="4.5" stroke-miterlimit="10"/>
<path d="M438.52 198.499V242.499V244.629V245.169C443.05 251.769 445.33 261.169 441.01 268.169C435.22 277.559 422.44 275.999 414.34 270.749C411.956 269.207 409.68 267.503 407.53 265.649C400.32 259.385 395.653 250.698 394.41 241.229C393.744 236.54 393.876 231.773 394.8 227.129C397.34 214.389 401.72 207.069 409.71 196.989C414.71 190.689 422.51 175.549 412.09 170.329C399.88 164.239 408.34 146.419 422.41 155.329C433.33 162.259 449.02 153.619 455.5 144.329C463.06 133.499 463.33 117.089 451.5 109.139C445.05 104.789 436.83 103.739 429.12 104.579C405.63 107.159 388.91 125.519 382.22 147.359C379.4 156.629 376.22 165.809 372.5 174.809C369.44 182.189 367.31 191.159 360.5 196.199C347.5 205.889 328.76 200.819 314.09 199.019C283.55 195.269 258.92 208.799 242.09 234.129C228.26 254.979 242.9 285.039 219.77 301.479C212.77 306.429 204.77 309.429 197.12 313.269C186.2 318.819 177.38 326.709 174.17 338.859C167.69 363.339 179.17 393.489 199.52 408.279C208.85 415.059 219.77 419.109 231.11 421.329" stroke="black" stroke-width="4.5" stroke-miterlimit="10"/>
<path d="M498.81 279.09C498.87 278.53 498.89 277.99 498.92 277.46C499.43 267.79 499.37 257.77 496.22 248.46C494.287 242.494 490.668 237.214 485.8 233.26C481.5 229.85 476.43 227.64 471.35 225.66C466.27 223.68 461.23 221.96 456.56 219.28C452.607 217.132 449.159 214.162 446.45 210.57C445.501 209.28 444.908 207.762 444.733 206.169C444.557 204.577 444.805 202.966 445.45 201.5" stroke="black" stroke-width="4.5" stroke-miterlimit="10"/>
<path d="M429.05 188.579C432.59 193.639 437.39 199.099 443.44 201.069C451.27 203.619 456.54 196.969 459.35 190.499C461.03 186.649 462.19 182.549 463.55 178.569C463.99 177.259 464.26 176.629 465.76 176.569C467.26 176.509 468.84 176.809 470.38 176.809C470.49 176.806 470.597 176.774 470.69 176.717C470.783 176.66 470.86 176.579 470.912 176.482C470.963 176.385 470.989 176.277 470.985 176.167C470.981 176.058 470.948 175.951 470.89 175.859C468.82 172.709 465.73 164.119 464.17 160.679C462 155.909 463.57 152.819 462.11 147.809C461.116 144.733 459.921 141.726 458.53 138.809" stroke="black" stroke-width="4.5" stroke-miterlimit="10"/>
<path d="M460.84 129.559C460.84 129.559 482.19 137.749 471.16 162.359C470.48 163.849 468.81 166.959 468.02 168.359" stroke="black" stroke-width="4.5" stroke-miterlimit="10"/>
<path d="M691.13 59.391C691.13 59.391 691.25 59.451 691.49 59.541L691.13 59.391Z" fill="#4E944F"/>
<path d="M459.66 189.789C457.951 190.024 456.215 189.627 454.777 188.674C453.339 187.72 452.299 186.275 451.85 184.609" stroke="black" stroke-width="4.5" stroke-miterlimit="10"/>
<path d="M463.27 156.831C458.85 153.231 454 157.831 451.04 161.171" stroke="black" stroke-width="4.5" stroke-miterlimit="10"/>
<path d="M394.44 241.238C379.616 242.177 364.975 245.023 350.88 249.708C327.88 257.248 312.04 266.978 293.25 282.228C285.103 288.892 277.378 296.056 270.12 303.678C227.7 348.078 217.67 389.738 231.12 421.378C242.05 447.158 267.25 463.148 293.07 471.298C309.96 476.618 327.56 478.908 345.22 479.418C366.27 480.018 387.5 479.218 408.22 475.218C416.95 473.538 427.01 472.158 432.22 464.048C437.43 455.938 437.87 444.998 434 436.308C430.37 428.218 420.57 419.518 411.71 425.868C410.728 426.577 409.92 427.5 409.346 428.567C408.773 429.635 408.449 430.818 408.4 432.028" stroke="black" stroke-width="4.5" stroke-miterlimit="10"/>
<path d="M378.43 294.738C379.53 327.898 351.43 346.388 351.43 346.388C342.11 353.938 333.05 362.048 325.43 371.338C320.56 377.268 316.04 383.908 313.8 391.338C312.125 396.405 312.154 401.879 313.88 406.928C315.789 411.597 318.944 415.651 323 418.648C330.58 424.578 339.8 427.648 348.94 430.308C359.011 433.19 369.269 435.375 379.64 436.848C385.64 437.708 388.17 435.848 390.91 430.658C393.39 425.958 395.42 420.518 400.01 417.448C406.37 413.178 414.91 412.188 422.27 413.948C433.62 416.648 436.52 425.648 427.27 427.468" stroke="black" stroke-width="4.5" stroke-miterlimit="10"/>
<path d="M371.5 519.709L199.05 478.039L158.01 647.879L325.68 689.559L331.06 687.089L371.5 519.709Z" fill="white"/>
<path d="M291.93 495.831C300.11 438.571 317.84 424.411 329.38 421.581L328.62 421.161C293.78 407.601 269.62 474.691 264.49 490.381L291.93 495.831Z" fill="#D7E8F0"/>
<path d="M291.45 500.369C299.63 443.109 317.84 424.369 329.38 421.579L328.62 421.159C293.78 407.599 268.62 477.919 263.47 493.599L291.45 500.369Z" fill="#D7E8F0"/>
<path d="M328.62 421.159C289.22 405.839 263.47 493.599 263.47 493.599L291.47 500.369C307.74 412.369 342.65 428.369 342.65 428.369C341.42 427.999 328.62 421.159 328.62 421.159Z" stroke="black" stroke-width="4.5" stroke-miterlimit="10"/>
<path d="M197.129 486.134L158.016 647.934L294.067 680.823L333.18 519.023L197.129 486.134Z" fill="#4E944F"/>
<path d="M199.205 477.569L158.019 647.941L301.272 682.572L342.458 512.199L199.205 477.569Z" fill="white"/>
<path d="M199.88 490.527L164.408 637.26C163.403 641.42 165.96 645.608 170.12 646.614L291.106 675.861C295.266 676.867 299.454 674.309 300.46 670.149L335.931 523.416C336.937 519.255 334.379 515.067 330.219 514.062L209.234 484.815C205.074 483.809 200.886 486.366 199.88 490.527Z" fill="#4E944F"/>
<path d="M199.078 478.1L158.021 647.938L301.275 682.568L342.331 512.73L199.078 478.1Z" stroke="black" stroke-width="4.5" stroke-miterlimit="10"/>
<path d="M342.933 512.865L301.876 682.703L330.473 689.616L371.529 519.778L342.933 512.865Z" fill="white"/>
<path d="M342.933 512.865L301.876 682.703L330.473 689.616L371.529 519.778L342.933 512.865Z" stroke="black" stroke-width="4.5" stroke-miterlimit="10"/>
<path d="M330.46 689.561L321.25 665.871L301.86 682.651" stroke="black" stroke-width="4.5" stroke-miterlimit="10"/>
<path d="M357.21 516.262L321.25 665.872" stroke="black" stroke-width="4.5" stroke-miterlimit="10"/>
<path d="M672.67 240.75C672.13 240.84 671.67 240.93 671.08 241.05C665.67 241.994 660.542 244.148 656.08 247.35C651.19 251.13 646.75 257.7 644.59 263.35C641.323 271.93 637.733 280.37 633.82 288.67C627.912 301.465 620.884 313.712 612.82 325.27C604.45 337.03 594.4 348.95 581.74 356.27C580.151 357.23 578.477 358.044 576.74 358.7C574.61 359.6 544.64 325.12 541.34 321.28C528.11 305.89 514.43 290.65 498.92 277.48C494.99 274.12 490.92 270.88 486.74 267.85C472.29 257.246 455.916 249.553 438.53 245.2" stroke="black" stroke-width="4.5" stroke-miterlimit="10"/>
<path d="M726.59 239.488C726.649 239.503 726.711 239.503 726.77 239.488C740.63 241.108 735.2 256.048 725.45 255.568C714.68 255.028 703.94 255.568 693.2 255.748C690.239 255.651 687.292 256.193 684.56 257.338C679.16 259.918 678.65 265.678 677.84 270.898C676.76 277.738 675.53 284.578 674.08 291.358C671.26 304.798 667.78 318.058 663.79 331.198C661.21 339.718 658.36 348.198 655.36 356.588C646.6 381.308 635.56 407.528 616.99 426.588C606.73 437.148 593.29 444.948 578.14 443.808C556.81 442.218 536.29 431.508 518.2 419.328C518.124 419.276 518.053 419.216 517.99 419.148C511.238 414.603 504.766 409.654 498.61 404.328C498.61 404.328 473.68 382.128 466.06 365.868" stroke="black" stroke-width="4.5" stroke-miterlimit="10"/>
<path d="M766 226.052V227.452C766 237.112 758.22 238.772 751.5 238.932L621.43 241.932C615.73 242.082 610.94 237.092 610.82 230.862V230.602C610.82 224.492 615.3 219.412 620.93 219.272C620.93 219.272 693.69 217.222 750.04 215.672C751.11 219.082 753.73 221.722 756.98 223.782C759.696 225.415 762.835 226.205 766 226.052Z" stroke="black" stroke-width="4.5" stroke-miterlimit="10"/>
<path d="M835.1 88.4191C835.099 90.0111 834.722 91.58 834 92.999L775.87 212.249C775.187 213.627 774.214 214.841 773.018 215.807C771.822 216.774 770.431 217.47 768.94 217.849C766.538 218.457 763.998 218.194 761.77 217.109C759.989 216.233 758.49 214.876 757.442 213.192C756.393 211.507 755.839 209.563 755.84 207.579C755.849 205.992 756.211 204.428 756.9 202.999L815.06 83.739C816.117 81.609 817.862 79.899 820.013 78.885C822.164 77.872 824.594 77.615 826.909 78.155C829.224 78.696 831.289 80.003 832.768 81.864C834.248 83.725 835.055 86.031 835.06 88.409L835.1 88.4191Z" stroke="black" stroke-width="4.5" stroke-miterlimit="10"/>
<path d="M676.92 63.892C694.56 63.892 708.86 49.5917 708.86 31.9517C708.86 14.3117 694.56 0.0117188 676.92 0.0117188C659.28 0.0117188 644.98 14.3117 644.98 31.9517C644.98 49.5917 659.28 63.892 676.92 63.892Z" fill="#4E944F"/>
<path d="M666.77 42.9409C665.711 42.5445 664.72 41.988 663.83 41.2909C662.263 40.1089 661.185 38.3921 660.801 36.467C660.418 34.542 660.755 32.5432 661.75 30.8509C662.398 29.7519 663.293 28.8186 664.364 28.1245C665.435 27.4303 666.652 26.9943 667.92 26.8509C667.217 25.1996 667.071 23.3644 667.504 21.6228C667.937 19.8812 668.925 18.328 670.319 17.1981C671.714 16.0682 673.438 15.4232 675.232 15.3605C677.025 15.2979 678.79 15.821 680.26 16.8509C683.35 19.0009 685.49 22.7909 686.8 26.2509C687.476 28.0678 687.972 29.9468 688.28 31.8609C688.43 32.8609 689.45 38.3609 688.65 38.9209C683.37 42.5809 673.54 45.5209 666.77 42.9409Z" fill="white"/>
<g opacity="0.72">
<path opacity="0.72" d="M649.97 130.519C659.679 130.519 667.55 122.649 667.55 112.939C667.55 103.23 659.679 95.359 649.97 95.359C640.261 95.359 632.39 103.23 632.39 112.939C632.39 122.649 640.261 130.519 649.97 130.519Z" fill="#4E944F"/>
<path opacity="0.72" d="M653.45 120.399C653.026 120.859 652.534 121.25 651.99 121.559C651.058 122.103 649.96 122.289 648.902 122.081C647.843 121.873 646.897 121.286 646.24 120.429C645.81 119.868 645.516 119.215 645.383 118.52C645.249 117.826 645.279 117.11 645.47 116.429C644.486 116.435 643.526 116.122 642.735 115.537C641.944 114.951 641.364 114.125 641.082 113.182C640.8 112.238 640.832 111.229 641.173 110.306C641.513 109.382 642.144 108.594 642.97 108.059C644.846 107.021 646.982 106.549 649.12 106.699C650.189 106.729 651.251 106.87 652.29 107.119C652.82 107.239 655.84 107.879 655.96 108.399C656.73 111.869 656.18 117.499 653.45 120.399Z" fill="white"/>
</g>
<path d="M748.939 74.5721L731.687 83.7691C725.429 87.1041 723.061 94.8821 726.396 101.139L735.593 118.391C738.928 124.649 746.705 127.018 752.963 123.682L770.215 114.486C776.473 111.15 778.842 103.373 775.506 97.1151L766.31 79.8631C762.974 73.6061 755.197 71.2371 748.939 74.5721Z" fill="#4E944F"/>
<path d="M755.85 118.78L768.34 112.12C770.944 110.722 772.89 108.351 773.751 105.524C774.613 102.696 774.322 99.643 772.94 97.03L764.94 82.03C763.544 79.424 761.173 77.477 758.345 76.615C755.517 75.753 752.462 76.046 749.85 77.43L749.01 77.88C745.89 82.21 741.74 89.62 748.01 91.95C757.01 95.32 754.38 100.37 751.01 106.84C748.15 112.27 747.42 118.62 755.85 118.78Z" fill="white"/>
<path d="M736.4 100.62C739.007 100.62 741.12 98.5061 741.12 95.9001C741.12 93.2931 739.007 91.1801 736.4 91.1801C733.793 91.1801 731.68 93.2931 731.68 95.9001C731.68 98.5061 733.793 100.62 736.4 100.62Z" fill="white"/>
<path d="M678.26 179.399C680.009 180.249 681.871 180.842 683.79 181.159C687.313 181.699 690.915 181.316 694.245 180.047C697.576 178.778 700.52 176.667 702.79 173.919C704.54 171.739 705.85 169.009 707.69 166.809C708.948 165.204 710.632 163.985 712.55 163.289C713.208 163.149 713.822 162.85 714.34 162.419C715.6 161.119 713.46 160.019 713.03 158.969C712.385 157.275 712.385 155.403 713.03 153.709C714.672 149.256 714.718 144.371 713.161 139.887C711.603 135.403 708.539 131.598 704.491 129.121C700.442 126.643 695.659 125.647 690.958 126.301C686.257 126.956 681.928 129.221 678.71 132.709C675.53 136.139 673.62 140.519 671.64 144.709C669.88 148.439 668.01 152.149 667.04 156.159C664.79 165.659 669.87 175.309 678.26 179.399Z" fill="#4E944F"/>
<path d="M696.12 145.65C698.578 145.65 700.57 143.658 700.57 141.2C700.57 138.742 698.578 136.75 696.12 136.75C693.662 136.75 691.67 138.742 691.67 141.2C691.67 143.658 693.662 145.65 696.12 145.65Z" fill="white"/>
<path d="M690.29 157.931C692.748 157.931 694.74 155.939 694.74 153.481C694.74 151.024 692.748 149.031 690.29 149.031C687.832 149.031 685.84 151.024 685.84 153.481C685.84 155.939 687.832 157.931 690.29 157.931Z" fill="white"/>
<path d="M684.82 169.451C687.278 169.451 689.27 167.458 689.27 165.001C689.27 162.543 687.278 160.551 684.82 160.551C682.362 160.551 680.37 162.543 680.37 165.001C680.37 167.458 682.362 169.451 684.82 169.451Z" fill="white"/>
<g opacity="0.54">
<path opacity="0.54" d="M578 197.529C579.352 197.35 580.689 197.073 582 196.699L597.06 192.459C601.67 191.159 606.52 189.719 609.79 186.209C615.85 179.699 613.89 169.359 611.54 160.779C609.627 153.759 607.71 146.739 605.79 139.719C604.47 134.879 603.11 129.959 600.48 125.719C597.85 121.479 593.69 117.839 588.73 117.059C585.08 116.489 581.38 117.469 577.81 118.439L563.36 122.439C558.62 123.729 553.62 125.179 550.3 128.809C544.4 135.259 546.3 145.379 548.56 153.809L554.33 175.359C557.87 188.309 564.5 199.229 578 197.529Z" fill="#4E944F"/>
<path opacity="0.54" d="M577 168.14C577.892 169.011 578.998 169.631 580.206 169.939C581.414 170.247 582.681 170.231 583.882 169.894C585.082 169.556 586.172 168.909 587.042 168.016C587.912 167.124 588.533 166.018 588.84 164.81L590.52 158.23L592.19 151.64C592.497 150.432 592.48 149.164 592.141 147.965C591.803 146.765 591.155 145.676 590.262 144.807C589.369 143.937 588.263 143.318 587.055 143.011C585.847 142.705 584.579 142.721 583.38 143.06L576.85 144.9L570.31 146.74C569.112 147.081 568.026 147.732 567.159 148.626C566.292 149.52 565.676 150.627 565.372 151.835C565.068 153.042 565.087 154.309 565.427 155.507C565.768 156.705 566.417 157.792 567.31 158.66L572.18 163.4L577 168.14Z" fill="white"/>
</g>
</svg>
